<mxfile host="app.diagrams.net" modified="2020-12-16T09:44:08.434Z" agent="5.0 (Windows NT 10.0; Win64; x64) AppleWebKit/537.36 (KHTML, like Gecko) Chrome/87.0.4280.88 Safari/537.36" etag="L089Dhycb9xKd2rolKNj" version="14.0.3" type="github">
  <diagram id="q0R3jnqXl9QSKXOc9uoV" name="Page-1">
    <mxGraphModel dx="1138" dy="640" grid="1" gridSize="10" guides="1" tooltips="1" connect="1" arrows="1" fold="1" page="1" pageScale="1" pageWidth="827" pageHeight="1169" math="0" shadow="0">
      <root>
        <mxCell id="0" />
        <mxCell id="1" parent="0" />
        <mxCell id="-50hmQoTLUrfGb5rIqys-5" value="" style="shape=image;verticalLabelPosition=bottom;labelBackgroundColor=#ffffff;verticalAlign=top;aspect=fixed;imageAspect=0;image=data:image/png,iVBORw0KGgoAAAANSUhEUgAAAgQAAAFVCAYAAACQOPdZAAAgAElEQVR4AeydCdy1U9X/e//v0EwlhJIpiQohTShzUclQSCEqFZEhYxEhUxOZimRI5ikhQ0mGyDwUCWXIENHwzu+7/5/v7v0e67mec8597vs+9/Pc55x1Pp/rrH3ta9h7r7WvtX577ek5JX/JgeTAtOLA//7v/7byYxja6fBmr//P//xP8fiv//qv8t///d/1MM77oMZBY7zheN2w6TWpzzRpvM9rMS7DyYHkwPTgwHOmRzYyF8mB5ECTAxpPaPzF+G5hDTj3GG5HAQxjAYd26ZCndvGd4mIZMpwcSA5MPw4kIJh+MskcJQcqB5qGXEOrUfdcykOGuQdDH39ek/qeJvU61B/hbvfFZ2I4PmO870yaHEgOTC8OJCCYXvLI3CQHWhzQCGtII/Um4zyHGgeNBpmw3QfdaPOZ+L5mOKbbDMd7eafnzfvyPDmQHJgeHEhAMD3kkLlIDrQ4gOHUKBOOP8415hp43P3/+Z//Wf7jP/6j/Pu//3v5t3/7t/Kv//qv5W9/+1uL/uUvfylPP/10+eMf/1geffTR8tBDD5Xf/e535f7776/HAw88UH7/+9+Xhx9+uDz22GPlqaeeKn/+859b7+B9HLybg3RIz64G82vemvmOZchwciA5MD05kIBgesolczXCHIiAQGOPEf7rX/9a/vSnP1WDjeHGoN97773ljjvuKDfccEO56qqryiWXXFLOPvvscsopp5QTTjihHHfcceU73/lOOeaYY8oRRxxRvvGNb5RDDz20HHTQQeXLX/5y2W+//cq+++5bD86JP+yww8o3v/nNctRRR5Vvf/vb5fjjj6/vOumkk8ppp51Wzj///HL55ZeXa6+9ttxyyy3l7rvvrqDiwQcfLI888kh54oknyjPPPFPBhKBBD0EnsVLmsUBEL/d0en/GJweSA2NzIAHB2DzKO0acA01D1TRM8brXmjSykGu2qL2v2dqnBU6LHgP7m9/8ptx8883lyiuvLOedd1459dRTq5HGwB9yyCHlC1/4Qtluu+3Khz/84bLWWmuVpZdeuiy44IJl3nnnLS95yUvKHHPMUY8Xv/jF5UUvelF54QtfWI8XvOAF5fnPf3553vOeVw/CxHGd+3huzjnnrO+Ya665yvzzz18WWWSR8ta3vrV84AMfKB//+MfLrrvuWvbff//y9a9/vQIIQMNZZ51VLr744goY7rzzzup5ePLJJ6uHAYCANwNPgjwgrKch8oMwP/nVyfvg9Sbo8F2R9xlODiQHOnMgAUFn3uSV5EDLGGlcIoU9nGOoYryGTiPvebt7eBZX/OOPP17uu+++ctttt5Wrr766GlQMPy31vfbaq2y99dZl7bXXLosttlh52cteVg01BjsaeQz6c5/73PLP//zP5Z/+6Z/KP/7jP5b/9//+3wzHP/zDP5Rej+azvI/38n5ABOAB4EAeOMgPAGTuuecuK664YvngBz9Ydthhh+p1wFtxwQUXVFBz4403VpAD2MGTAPgBEGjQoYIGeUYc93A04+BhOx57X1bj5EByoDcOJCDojU9514hyAKOiwdHAcB4NWPM6rPJeDRWU+zB0tPzpr7/99turm//MM8+s7vwvfvGLZdttty2rrbZaWX755csb3vCGsvjii5dXv/rV5RWveEU1tv/yL/8yg0F/znOeUzww9BhxaIyLAMD4iVDf47Pt0uEaecDL8PKXv7y86lWvKosuumhZaqmlypve9KbqXQAo7L777rXrAo8C3Q94QABEdDcIECJfCcdz5RKBAzzmPMqG+4iH5i85kBzozoEEBN35k1dHnAMaHqjGBYMT+8bbGSvuwThxH4PzGMiH65++/h/+8IflW9/6Vtlll13KhhtuWJZddtnyyle+srascdHTCm9nbGOLvZ1x5rpeAY22AKF5v9fHQ5vv4Dy+P76LeL0U3Oc14vEu0AUx33zzVY/He97zntrlwdiG008/vVxzzTV1XALjJBjcyOBIQYLASiMvRTbwnLEW8ByZKC/DI16Vs/jJgTE5kIBgTBblDaPIAQHAWBRj0zRWGCX6zP/whz/UVu/Pf/7zOrCP1v/KK69cAQCuf/r4cfNrLDW4Y1GMqof3eg6NBtjrUtPqByUtAAhHM02vNfNDujEvhPF64E1YeOGFq1eEMQqbbbZZHQAJeGLQJLwEWMHraPQBBAAB5EBYgMC58cgwf8mB5MDYHEhAMDaP8o4R4kA7ANA0Mhga4vhxv6AAg4XL+5577ikXXnhhOfDAA8umm25a3vzmN1fXOf3rsZ/f1rwGUiNKHz1HvB4NuPfF674DGu+N8c1r8b5ew76P+w1r9KEeXpN6P9fxHOgF8TplIQ5wAI8YJ7HAAguU173udWXNNdcse+yxRznjjDNqNwveFsYeAAwEAgIA5Yd8vJaAYIQ+4CzqpDiQgGBS7MuHh40D0aBgVOKhgTGOwYDM62cuP16AE088sRquDTbYoLzrXe8qSy65ZHnpS186w0A/DSYUY6ih1DBCvacZ1mjHe41r0nhPDDfvm8g572v3nGUyPc47gRbvafcu4nwWYMTgRcYhvP3tb6+zG3baaac6nfKKK64ov/71r+s0TKZkAtT4KUOowCBBwbB9qVmeqeBAAoKp4Gq+cyA5oCHR4EcKGKBvGpc1xofFexgtz7z8r3zlK2WLLbYoK620Uh0L0M5YYhg1jk3DqXHUCLYzkr5TY9ntnniv4SY1zV7e03y223l8bwzzDOex7JY3xsVnjI/pwcN55pmnDk7caKONym677VbBwc9+9rPCOgjIBjk5uBC5KdeBrJSZ6eTALORAAoJZyOxManpzQMMRgQCtTowLcbioWdGPlinTAT/60Y/W6XUMCGxn7DV4XNMYel80coajMTSuHeW+GO9zMa5b2Pul3e4d69pE38Fz8Ccafd9lnOfkwfuh5on7mOr4+te/vuCVYT2EH/3oR3XwJgs4xcGF07vmZe6SA9ODAwkIpoccMhezmAO6kDH0tCJtSXouxagwTfCXv/xlXbVv5513rm5rptExJoAR8/aHa+A0aJ4LAjRw0ahp3EaRtuND5BHhJi899z7OGXfAOggLLbRQYcYCgzeZxfHTn/60LuzkWIMoc+QrAIzUamhc89x3GJ80OTBMHEhAMEzSzLK0OIDijoaeC8RhCDQGGn3uM46wIIBpgpdddlk5/PDDy6c+9anylre8pU4NZDEejJAtf41TL3QUDf9Ey9wLP70nAgOmNLLmweabb14OOOCAcu655xZWTGTxJ7p8lDcyt2uBsEenemIdaVWyDCQHhowDCQiGTKBZnL9zIAICFb0AQcUOtUsAChDA1QwQuPTSS8tXv/rVsvHGG9fR7oAABrhpgAAD7Vr+Xm9HJ2oYR/W5djxsFwcYQBZ4apQRlMWRAAfMUmCfhnPOOacOQmRtA6eKCgig1A/BgPXB+Fh38htLDgwrBxIQDKtkR7xcKHYPDH9U6JxrCIjHOAAE7rrrrrpXAMZjvfXWq/3TGJl2hl/X9aga6+lYbsBCBAfIznOAweqrr16BAStDsjIiwEBwSH2I3gPPodzDD+r9I/55ZfGHlAMJCIZUsKNerNjSEwzQ6uPgHEWPR4B1A9g/ACPByoGswc/8d8YHAAQwMtJm63Q6GsVRzFOUC+UHBOAh0FtAHOCAcQbIlumg22yzTd3B8frrr6/jDKgL1g+MPnVE4y+wlI76t5XlH14OJCAYXtmOdMnaAQJbfSyFy0qCeARYKhcgwAqC7BfA5kC2NG1hanAwLF5LD8GzeyjMbhCifJCJcjEOCqDj0NvD+A/Wh2BXSHZsZHtnBo0CDllbgnoiiNQrIKVe5S85MKwcSEAwrJId4XIJBqQqdyirCbKYzUUXXVT23nvv6hFgCWFbk9GoEMaQRCPTLg6jM7uN4qimr+EXrCFHDL8yQX7MBHEQaJQfYYAB0xbxGOAlYvAhYBFQ4KGnQA9CgoIRVi5DXvQEBEMu4FEsHgpbEIASR7Ez9YzFhK666qqy7777lne+851l/vnnr6vgaUQ0/BgR4qAalnYGl2vcM9Z97Z7NuP54GOC9AEB5ND07xHMQH68hbw7AAnsp0F3EKojnn39+3Y0Sb4FgAEqdguYvOTCsHEhAMKySHaFyxRYbYQ+UN0CAjXGuvvrqcsghh5RVV121LLLIIsWpg4IAjQkGJsaNZbg1NmPdl9f7AwCafJT/UWbEce7BM94nbQIJACB7KLDI1CqrrFL22muv8uMf/7j87ne/a22qBLi0bnX6vLwOzV9yYNA4kIBg0CSW+a0cUOFCMfwetOJ09bKg0C233FK++93vlo997GO1z5h18TEKGoloYDQWMS7DU2PIZwVflXO7tLgmiBA4KH+6GBZffPG6+iFbMrMs8iOPPNIaX9Csc9Q94oyn/hGXv+TAoHEgAcGgSSzz21K+sEIlTOuNkeIceAVQ4Cxju+OOO5Y3vvGNtR8ZxR/dxu0MRcYNLgCYiOwEBs26YfxrX/vausDR9773vbo+BQNSNfiAT+qd3VPEe069zF9yYNA4kIBg0CQ2wvlFyWr0CXMIBPQKsPvgNddcUzccWmeddVozB2wFRorSn4gRyWeGAzToEWjWCboTmG1CNwLHnHPOWTeu2nPPPetyyMxG+Mtf/tIVGKSHYIQV1QAXPQHBAAtvFLNuawwwQFiAwOyBu+++u9CS23rrretcc1aqwyNgfzFhjYA0jftwGPeJyNE6AI2ggPoiGCCec7qaFltssbLZZpuVY445prB+gSseAkapi9RJgABhuxFG8RvNMg8uBxIQDK7sRjLnegZQuChiugdYo/7aa6+tgwZXW221OpUM46+RQKnbVQDl3GtJExAIDDD8HNQPQYKUOA4Goy677LJljz32KJdcckkddMhshAhUraNNOpIfbBZ6oDiQgGCgxJWZRcmifOkqABA8/PDDdbnhz3zmM2XBBRdsTStTqTcVOoAApU98goHRBQPInjoQD42+9cLzCBK8n5Us2XL5hBNOqJ4pgGn0FFBP9RIIDPLrTQ5Mdw4kIJjuEsr8zcABAQGLx7Ae/RFHHFGnErLADG5e+n6jFwAFbstPRU+cgMG4pAkOYp2w3sQ4wtYlKN6CZZZZpi5wxfoWjC2gC0tvAYAggoIZKnKeJAemIQcSEExDoWSW2nMAMMAGNA888EC54IILCl6BpZZaqm5CBBiw9W+Lrp2Rt4UXFX27+zJuuACCcpe2k2+zTnCv9xHmevNg7YJFF120zkT4/ve/X70FDDh0HEGCgvbfcsZOTw4kIJiechnZXDXdq7awULD01d577711XYF3v/vdM2xAhKIGCAAMoFGZq9ShKvYYl+HhMv7t5Inc49Hunm5xPss91jXiOKe+zTHHHHU/jK997Wvl9ttvL88880xrFgJ1mPpr3ZaO7EeeBZ+2HEhAMG1FMzwZ60UBco+K09YVcfTLMl6AVheK9qCDDiorrLBCBQMoZJQzS8/iHVBZE1ZZd1PyeW34gcBUyJg6Zx2jnhHmoLuKfRFY++LKK6+seyK4LgGeLb0F1G/iOc9fcmA6cSABwXSSxgjmRbCAcsT4Q1GWKkzOGS9wxRVXVEXL9rW4aVHKKmM3rkH5CxKmwhDkOxNAUAcEoe3qIKscslnW6quvXk477bRy//33124u67d1HMpB/c9fcmC6cCABwXSRxAjlQxDQpChN4mhBoSzpInjwwQfrFsVbbrll3YNAJQyNhx4BqOE04GnAp6IOUO/slhKA4iEwjjCLGa255prlyCOPrNtsOzWRek39jl6wEfr0s6jTnAMJCKa5gIYxe00gwLk/wngHWCL2t7/9bVWoa6yxRt2NTgAQF43R+KuYuWcqjEC+M8EFdYD6pfEHAHBO3fMgzi4sPFmsWXDggQfWbZX/+te/1rrNTATqePwOrP9JkwOzkwMJCGYn9zPtFgdQjnoGmNPNlML999+/ziJglTiUsIpYYICCjkAgwUAa7akGbhh8AKlAgHMO06U+xnsYV8BMmN12263ceOONhQ23AAOMKQAY6BWLoLj1UWQgOTCLOZCAYBYzfFSTG0vhCQhwrbIXwa677lqnc6FQbXHFGQSxRaZyjkrZcNIECf2sAwJQ65/gVCAAGDAsxVOw8MILl+22266ubsh23AACgEF2HYyqRpye5U5AMD3lMlS5wti3AwTGO+CKwYM/+clPyvbbb1/XjbclJiBA2eolIByVsUofJUy850kTEPS7DlC/mt1W1juuGSZd6quDXl/xilfUfTbOOeecupYG3WIJCIZK1Q18YRIQDLwIp38BNPzNnBJvNwG7FLI2/BZbbFHmnnvu1gAtW1ka/2bXAUpXBRxBQr+NQL4vgYV1gLpIPRSwUv84Yl2MwEAQC6Vub7TRRuXkk08u9913X/UUJChoaoY8n10cSEAwuzg/JOlq7KGdflzDCxD7S42jH/XRRx8tF154YfnIRz5SpxR2MuwqXpWvCppzFDDPNa95T9I06FNVB6yXvL9dXSSOuomnABDx4he/uLzrXe+qO3MCCugm49uIgw3pTnDgYafvKuOTA/3mQAKCfnN0xN7XCyCAJQIA76dVRD/qI488Uk488cSy3nrrFVyqegJsYU2VEs/3JkCYyjrQBAmCVeIFBay2edRRR5Vf//rXdVYN3wPTEgUDAIRcq2DEFOpsLm4CgtksgEFPXgMP7fZrAgKU3+9///ty5pln1s2JmLdt60plKp1KxZ3vTmAw1XWAeqzXyzrNOZ6CVVZZpRxzzDF1DwSmJQoI8BgImgnnLzkwKziQgGBWcHmI0+gVEESXKC0gRlqfccYZhTUGAAN4BKJiVnFCY3yG04APYh2gHkfvF2Ugjh0T3/72t5fjjjuu3HPPPYUpt4Jnvhm/ryFWIVm0acSBBATTSBjDnBWVHG7Qxx9/vJxyyinlfe97XwUDDhTsBAoG0QBknhO4NMEs59R1Zx3QdcC02he+8IVl6aWXbnUfAArwFHBEUJDgYJg15PQoWwKC6SGHoc4Fikz3J54Btoldf/316+qDuE5VkgkI0ogOE5DSIxCBgfXdLgTuIQwoWHHFFcsRRxxRuw9c6jjOQBAQQPOXHJgKDiQgmAqu5jtbrk6VGJ4BxgycddZZFQy89KUvrS5UwACtJJRiVJzDZBiyLKMJdKjPggLrAHHNw7rPxkgsdfyd73yn7uHBOBs8BPHwe0oVkxyYCg4kIJgKruY7ZwAEsIN1BliQ5f3vf3+diw0QUDGiNAmrNJOOpgEdRrlTr63fzTqudyDewzLdbO+NF+3hhx+eYZ0CgUGCglSwU8WBBARTxdkRe29TSXmOEvvLX/5SVyBkx8K55pqrtcoboAClCDWMcmwqzmE0FFmm4QY97eqwdVtK3eegLuAl8KD7AOAMKGCNDgbhCgagflvQ/CUH+smBBAT95OYIvksFBaW/MyorFNkzzzxTrrvuuvLpT3+67k2A0mMwFYcK0EFWKso0lv01lhidaKAEYfJbSjwy8V6oMooy8XqMy/D4ZSbfoQBieU34JS95SfngBz9YTjvttPLYY4/VxYsEBnxjfG+cE3acwQiqnyxynzmQgKDPDB2l16mYUE4CAsMoKzwDN910U9l7773LQgst1DI2jBlA6WlwAAS2lNKwjN+wdOOZxkZQwHk0/MjBFfS8BvXASDVlwzXT9L4Y57WkvckS3gGQ4TPyIAzv8KZtuumm5eKLLy5PPPFEXckQ48/BDASBAN8aYb7H/CUHJsOBBAST4V4+O0MLJYICBhHecccd5ZBDDqk7vWF0UHwYmAgAVIJpUHozHhMxsvAY/nIQRgYRkBEmTvnE66bn855LfSfUuKS9y1K+IgNkE78Hrs0777yFrrZrr722etsiGAAACMoTDKQy7gcHEhD0g4sj/A4UUXN1NaZM3X///eXwww8vyy+/fGveta0fjRGGQ4WYRqR3IzIeXgkG5LVGR6PPyHYWx2FxKNzUUPqwBXDIh2e438N3KjvPx5OvvPfZug8f/SYIw2c9BsgB79puu+1Wbrjhhrpwkd4AAUGCgRFWwH0uegKCPjN0lF6HIkI54bLkwEMAOHjooYfKCSecUNZee+26WZEKDyUXFZ8GJY3D1IAB+KqxltdQjAyGf8kllyzrrrtu3ZJ3p512KrvuumvdenqTTTYpb3vb2+pskOc///lVZgII5MfBefPdKceJyVGZwFPC8DXymO9m0UUXLYcddljd9wDvWxMUjJLeybJOHQcSEEwdb4f+zQAC+y8BA4T/9Kc/1RkFG2ywQWGtgaaC41xDpUFJQzIxQ9Ir3+CzvAYMLLbYYnUtiAMOOKCcf/755cYbbyz33ntveeCBB+qiOFdeeWVdX/+Tn/xkXVb3ZS97WQsA8B7BAeFe85D3zSxjvwWoYFmeEucBv/HkrLzyyuX444+vMw8ABXx/jtlJL8HQq9tZUsAEBLOEzcObiECAFgszCn7xi1+Uz372s+U1r3lNy+2pVwBlx4Gik2IomudpPGY2HhPlCbzF2GBUOF73utcVvAGXXHJJ3U/ib3/7W/Xq4NlhyVwWw4EC7O688866SM6GG25Y5plnnpm8O808kVYzLs87y1KZyDeoYfjmud8PXp0PfehD5aKLLqry0UsgKE9QMLx6dlaVLAHBrOL0kKaDEsKYsFPbLbfcUr785S9Xo0M/tIYIhQYAQAF2awml8ehsPCbKG3kORSaf+tSnyqWXXlqeeuqpavwZ7+EYEFqdGBfOCQMMfvvb35ZTTz21bLbZZmWOOeaoMoxGa6L5yuf+3p2DXNrxkzgBtOCZb2eBBRYoeG6uuuqqCgrspgMc5C85MFkOJCCYLAdH4HlbHtDmoUL63e9+V92Zb33rW1tAAAXGYUsHxSY40CAIFNopRe9JOjNQkKeRN804zuE/PGarXXbVY147m0thQNxEBxlyDhAw7LK5AAO6Ek466aTaj82YAg0UaZsmNOYlwzPLrB1P4Bv89Jr8jOd8MwAHDgcZMpX3rrvuqusT6Cng20R+ze91BFRUFrFPHEhA0CdGDutropJB8XCgdGhJSmltnnfeeWWdddZpDSJEsQkIVG7QdoajXVx8JsMzGxeBlLyBh8RprDnHgAjAXv3qV5f999+/jhHA2CPXKE/OoyHRsBAHcLj11lvrQjnMjffdGjLTNi9JZ5ZXN57Av07XuYYMofE+gDcbIbFZmIAAqpcH+XH4vSJHZTqsuirLNXkOJCCYPA+H8g1RgRDWlayCwagQx+JDzJHedttty4ILLtgySCi4phLrpPQyfnwGBH5p/DvxTt5DmVa4xhprVNAGeFOGyNWjUyXmOp4DZo5ggJZaaqlqvExfAILR6pSXjB+/fCPPkKF8Np7uH7YPP/vss2v3D98iB7LlMIz8jCOcv+RANw4kIOjGnRG/hgKxVYGC0aVMHC0R+p/vvvvu8tWvfrUsvvjiM3gHVGAaJhVZ0skZh174J8+h3L/IIouUfffdt8oKuSE/5Il8xzISXMegCPwwQnQb8N5oqEyrl/zlPeOvAwIw+cw5AHyrrbYqN998cx3Dg5yQLRQ5Q5Wf4RFXaVn8MTiQgGAMBo3yZZUJSkZFg2LhwKA88sgjtU/6ve99b2GXNpSU7k2oA6ZUYmkIxm8IxsszjbSAjD7n1VZbrZx77rnlz3/+c5Wd8kO+yBXqL4aJ8x7kze57++2330xeAuRMPk1zvHnO+8euF1Gu8pkuOcDeUUcdVe67774WCAC4Iy/k7LfblKvyTpociBxIQBC5keEZOIASUalwIYICvAPMV2fUOi5pwYCDCGP/dSr8sRV+v3iEHDQYyGC++earCw7dfvvtLeOgTJvy5bxpOIzjGQAF0xWZ+oaB0kgpcyhp96ss+Z4Z642yhQq28dYA+BjDwxbjyInuPKhHU6YzfOR5khwIHEhAEJiRwWc5gBKJAMCWJPG0QFia2NaiCkqFhSLHWKC0OFKxz6jY+8UPeNx8l4aaeLwDyy23XPnBD35QN8dBurHFqIw1GFDDz9aEv3sJMC64oZmGuNdee9UpiMhbUBBpM095Pnn5w9/4PfmtEceS0+wmylREvQPKGaq3oJ1so5wznBxIQJB1oC0HUB4YAajKhTAKh5HNzE1fddVVa3+yyknFHw0FCgtl5rWkkzcO8BCeRr7GMNfpsmHOOoM96WPGmPNrypNzDq/F8xr5f8/4HAsWnX766XWQIqvnKc9m+sYn7Y+8BQN8W/AUfhsHZQzPwQcfXIE6sgYE8N0iN845lLNyTZocaHIgAUGTI3leOaBhkAoKnn766XL11VeXLbbYorziFa+oiqkJCAQBKC3BQRqG/hgG+QhvoxGOfCbMmA6WugW4PfbYY9UYaBCggj3jELqylsZPwTjc0XQ/7L777nVp6ma6MU/mNenkZQ/Ag9fwEhrBgPJm2i/eIECb3QbIDRDPQTh/yYFuHEhA0I07I3hNxd+kuh4ZvPStb32rLLHEEtUlHQ1CKv7JK/6J8hA5cPA8xoKxA1tvvXVdvIZ1BJSfrcZ2xqEp8+Y5zwIkmLqI4Vl66aVrHXAgKV0UpD3RMuRznetPBATwOI7X8BsEoDOmhyWnWZIaWQEEBH/KfgTVWha5Rw4kIOiRUaNwWzQAKn/iCOOCpOVx8cUXl5VWWqmufBeVUirzzsp8KnmjpwCKoYA+97nPLe985zvrypEYb/uQNQjItJdfp/qAsWFDJPqt2cDK8glKzJPxSSdfN+CpfCQsr6HIHcDAAMMVVlihHHnkkXVGCHL3UJa9yD3vGV0OJCAYXdnPVHKVBrQJCHBBslcBAwlf9apX1XXxNUAqqqSTV/zj5SEGAWCmLDAWbILziU98ohptZoPQQkSekwUEvoP+aMaRMN1tmWWWqemTb42UgCAasfGWK+/vXJfkr/xW9lB2pmQWCPtV0L2HzASEfNf5Sw5040ACgm7cGbFrnQABBgXvwCmnnFLXw6cFSh81CigVd2fFPSt4g1FAHkfDS9kAACAASURBVLrtSZMdDb/xjW9Umeky1pgr416qtvdGSl3AwAAQf/7zn5ePfexj1VtEuhooDVYCgqmpG/JXfkONAxyyNgHLVLOlNXJHZoJCZJm/5EAnDiQg6MSZEYyPit+WBcqfFiEj1bfffvvaAkH5AAZiv+asMH6ZxrMGRgMA1TDYUvz4xz9efvazn9U9CJCfYACqjCdSva0TGhe8BIcffniZf/75KzA0HzFvKbNnZdZPXkQexzpAGFDAipIXXHBBHe+BvJC78p+I7POZ0eBAAoLRkHNPpdRYSFEkuJwfffTROpDw9a9/fR1EpuFJQDA1yr4XwxGNAPLAGCMPjDODPh988MHWSPN+AQLrhRSgeNlll5V3v/vdremnTUPVS1nynonVo8hr6wBx1AO8BDvuuGOdEeIMgwQEPanBkb4pAcFIi3/GwqvopQACugp++tOf1n7JOeaYo3oGGE0elVEq9Ikp9MnyDRlgCBxDQDfOBz/4wWqk2XvAlryAQLlKo/TbxcXrvCO2NDUu7GVx0EEHlYUWWqjmI9YLwpMtYz7fW92iHnDAcwAB3UjLL798XbL6ySefrN08yDh/yYFuHEhA0I07I3ZNoyDF3czKdCh8BhJqeFA2tEhTWfemrKeST8hBubz85S+vLnyMNK13fp3AgDLmHsPSdtWe99j9EMclABjxErzjHe+oA00TEMyeOqGHgLpGnUAObH7EqpIMBv7rX/+a6xC0q9gZNwMHEhDMwI7RPtEgSFm7HmW/8cYbV5ewrRBaIBycT6Wxy3ePbVxU/nhvWNMeebnFsR4C5dkrbfcV8KygAGDgOeDgN7/5Tdl5553LwgsvXOtFBAUpw7Fl2G8ewX++TTxGzAI57bTT6uJUyC9/yYFuHEhA0I07Q3otGgaUBOf8mvEPPfRQOeSQQ8qSSy5ZW6EYH4/YIum3Qsv39WZEUPzIA34ttthi5Qtf+ELd4pgZAMg1ynasqozsARB2C3Aen/e83T0AkB/+8Id1ZcS4nLFyJJ8xbJ6NS9qbvHvlU/xGX/ziF9d6cdNNN9VBpsoXinz97sdbX8aqT3l9MDmQgGAw5TapXGv4UQK29nhhNAqsbnfttdeWTTbZpPZHCgCiEepVQeV9/VX48hPFj1wY04HL/owzzij0F6vskWcvP+VON4PdArzDsHUj1hvDUJ5js6tPfvKTZZ555qnGXxAAJY/NPHuetP91Q0AA7+lOWnPNNeuU4SeeeKKuXOh3bz1Bzoa5hkzzN5ocSEAwgnLng+fDV+lH5Y4LmBYmU8qYy/7mN7+5peCjkkeRc25cKvb+K/axeEq3DWCAJWu32Wab1iZG41Xo3K/crQucR0DgZ+J16o8H9YixBMcff3x529veVusERsn6ISDwnGtjlS2vT7w+wV/qhsBg7rnnLrvttltrxgGy1fArd88FBso76WhxIAHBaMm7VVoUuwrdMBQj8Mwzz5Trr7++rLXWWrUfEuWsMjcsTUAwccU9WaOHwsfY4h048cQTyx//+McZXP7Is9vP69QDDQHUQ0DAfR4aDs59jvvxEtx6661l8803ryDF+gIVAECzvkxtfZHv1AsBAeE11lijegkYF8QAQ4AAMoQiO3WB8u1Wb/La8HIgAcHwyrZryVTwUlsNGIHf//735YgjjqiDxFTiKhqpgGCyRi2f791AyHuoyp4ZH6wWCIDDs6NhV67dKoH32ErEUERjoXHwPmiMIyx44B0AEtZAeNOb3tQCkOTVumL+U+a9y3w8vLJeyGfqCB4kKFth77DDDuWee+4pgAK/9yhDgQFyzt9ociABwWjKvbYOVO5QFATKnbEDbFyzwQYblJe85CVVsdPCiEoGBTMeRZX3Tt4AyH8pMkHZv+Y1rynf/OY360JEGuduCj0ad8MYArqIGHjmgkZei9T6QpyGBMrBO6g7LGe87bbb1r5r8mpdgXKedWHydaEdD60X8FleQ6kj1BU2Plp99dXLOeecU7t3AP6CR+THuSBhRFViFruUkoBgBKuBCr2p7FEMDDw6++yzy6tf/epWPyQKBSWkgkfRtFNKGTdrlL1K/0UvelFZd911y09+8pPazYNRRrEjV37SWMXbyZwuIpY6/tKXvlSuuuqq+i6Ngwaf5wj7PMaEtIzz/ocffrjutscuiAJJ6kUMZz3pfz0REEDhtVODqSues3gU00MBfchOEKBMpbG+ZHi0OJCAYLTkPVNpVQJQlPoNN9xQ9thjj7phjcpEABCVTir1/iv1TjyV7wIBKKPH8Q6wic0DDzxQZYf8MNTKFGMdf8ZDNfQYhdtuu60ccMABhaWpGUjKjIE4dVGj7/N6Imxh+j4oXQ5XXHFF2WijjaqHyTJRBvINNS5p/+sQ/AUAcMhv6w8AkhkHgD9AIHJF/spVOcY6k+HR4kACgtGS9wylVQGoEOhbPP3008tKK63UUigoFpW4iiUVef8VeTeeyncBAeco9w033LD8+Mc/rn3CyrJpvKPAlXO8l70qzjrrrLL22msX1hBgYyS8BH/7299mcCkLNDQipgM1TFqAEla3ZP0KVrfUOJFnjVS3sua1ydetCASsM/CV8SZvfOMby7e//e0K+qLsqBPKONaZDI8WBxIQjJa8W6XVKOjqRTnQ0jzwwAPLvPPOW0GAhkgl3Tw3PunklXiTh1GRG4b/hplquM8++xRc9MiQnzKFNsPGGY+8MQCMHcA7wPoB9DczbfDoo4+uqx3SetTYayyaRsT3mj730fq86KKL6kJFL3zhC1t5TkDQ/3rSrDecU0+Mj98s/KfesF7E1VdfXcd8KD/rA+f5G10OJCAYUdlrGFDgKgP6orfYYotWd4FKJemsUeSRz7asiRMESBkgxpRQFiKKI8OVaVTyGvSmIeecQYBsXPXRj360Ti+lGwIDzjmj0e028H1N2u7T4R7y9Ktf/aquo8+uexqlXO561tejWKesS0sttVQ56aST6qwQv33kZl1pJ9eMGw0OJCAYDTnPVMqmIsB1zN729COn4p79ilsjihInDBjAYEPnmmuusuuuu9aFZpSjylzFHs+bhpxzWv94Bw4++OA6TZB3mw5dRueee241GHqQqEDN98xUqf4vgrTxEvCOlVdeueaZd5MGdatppPJ81tU35KB3iU2wqAeCSutMJ7lm/PBzIAHB8Mt4phKi2PEMOKAIhcBAss997nPV2GgYUlHPOkXdidfIgmsAAVz6HPQDf+9736vTx1DiHgoa2XIgZ35Swt7L4L/rrruufOQjHynMCCAd02KTIkajYzAAijzjeyIoqJFt/kyfwYqf/vSn6/vxeCTQnL31ye+aTY+YVoxHEC9QAoI2lXhEoxIQjKDgBQQajb/85S/lkksuKR/4wAfqYDUNQycjlfFTr9hV3lAODCotbIz3dtttV/eZANApw1iNMeAxXiPOPRrrxx57rBx77LHlrW99ax1MaHrIli6JFVZYobVzIu/zHZHGNGNY0IEH4rjjjitLLLFEy7thebIOTX0davIY3uuhecMb3lBlw2JS1CNlhnzzN7ocSEAworLXaEBZe+Cggw5qKW6MT1OZ5PmsVeCOIRAMcI53gF0NTz311PLII49U407rTiUejXUMR1kTT6uQ1jvegZe//OXV+xDTwxsB8Dj00EPLvffe2wIX8Z2EO/00LqTDBlkf+tCHWuNSeHfWr1lbl+K3C/85GES60047lbvuuqvWB4CiHsNOcs344edAAoLhl3HbEmokGFh2xx131F0N55xzzqosUBgYoqhIMjxrlbiKG77bqmblSFy9LFOsK18ljoHWEEfDjfA5R+FznfDjjz9ezjzzzPKWt7ylegN4v+mZFm7l9773vXVNAdKK7zTcrmJxzXSgLIPNcsbLLLNMnfZmWlmfZm19kt/IGWCJfFmTgGmreAitO+1kmnGjw4EEBKMj61ZJVdooAVyGDP5iupl72WsUVCJJZ4/yVg5SVo9k4CdGViAQjS9yJd7uAq9pwKFcwzvAoMT555+/upAFA9FLQLcBMwSOOeaYurJdu3e1KlQIcJ/pkx6DCxmrAJCZY445Emg+Z/bUJb9hZM16BHQdsL8B3UaPPvpolVkQYwZHlAMJCEZQ8FFps/YAi8gsuuiitZ9XxZF09iluAAD8h2KkVeKM2Mc7YIsOg4sso7FmVoDeAKjGmWrO/Tx7wQUXlFVWWaW+1/eThmHSZbzCy172sjrQ9Jprrmm5lXmHR7tPx/xwjTAABY/EF77whbqyImlk3Zo9dcv6BBggjHz33HPPVrdBO3lm3GhxIAHBaMm7llaljbG45ZZbylZbbVVbDCiJVNazR1l34juGmmsMAvvyl79cW+sYfYxyu5/GGhkjXwwyh+eMCdhvv/3q1DMMA+/3QP4eXONgRgNegj/96U91ASTfAyUtqOFm2qTPNWY04Jpef/316zoHlom0TJsyEiZNw1kf+1sX4SeATBm/+MUvLhtvvHG5/PLLK1BEXspMWULzNzocSEAwOrKeoaR86LQWL7744rpsrQYpKmjjkvZXMffCz9haRyb051944YV1mWIN8AwCbZwgX401lMGHLE3NPgPrrbdea+xANMoaimg4WPNg++23rztgxulp7QyHcVBAiEaFwYVMYdx9991rN4V1zDJKBSHwR8PVC6/ynt7rJ7KFz8iAroOll166TmFlYHGsL8oOmr/R4UACgtGR9Qwl5eNnWhitPwZ8qVRRFChjz5P2rmz7ySuUtkZx7rnnLrvssktrxL+KewaBNk4EBCp2Bgay1gTLEuNtwDCQX41zBAMREDCuhO4F1j0AQLpQkXnw/dDoiQAUeA0g8fTTT9d9Mt7//vfX7gjKRhlJyzpHHGHzZR77yddRfxc8tW7Ba+SL5wnPUQRxyg6av9HhQAKC0ZF1q6Qocz5+Wm2f//zna6sNRalyVimPuvKcneVHFhz05a+xxhp1qiFuew0vBrfbDxlzDwdhjDljAbbeeuuZ5G1ayN2wYAQeMDURLwGbFrnpkQajHTAwbe4hfQABlPq29957F2azREBg3Yv8Jh/xPMP9AabIWDnL02222aZuaEXXjnKNtFs9y2vDxYEEBMMlz55Kg8LGjfuLX/yi1a+LcrDloKJI2h8lPFE+YhQZ7b/jjjuWm266qU411MijsLv9NMa06AF/jCRn/XpmDuAqJk/R6GMkbKGTLmGvs7/Bu9/97nL++eeXJ598sgIMDUY0/sZBjSdtAAEUQPP973+/eiiY+tbOOJE28RPlWT7Xuc7C26ZXBn6tu+66VS7MOEJuUY6E8zc6HEhAMDqybpUUo8J0MEabv+Md76hKAsVAa1QjgPJI5dpZuU4lb+Q97lzc+8cff3zt3sGo6rIfS1FHo8xaEzfeeGPZbbfdauuc93Mga8vRBARcJw6KEXnlK19ZW/dxoSLqEXnSgHAeDYrgBUq+yQezJHbYYYfWipjkQSNFXpr5Mn9J+1MXlSnfOgd8ZeAoC5Ox2FWUp3JtKY4MDD0HEhAMvYhnLiAfPdvmHnnkkVUZoIRVxCoMaCrh/ijh8fJReeCq/8QnPlE9ObpzMawY2LF+AgIMNC0/VjdcffXVW8sUY4iVNfkjbFzMr/fgVaAl6Yh00qceRQNCmLxpSEhbgCA4wOjgJcBToZegCQiy7k1tvaN+AQbgO7JmtsFnPvOZ2iXkwFFlCM3f6HAgAcHoyLpVUj56tqdl/AAb2aAgUilPrRKORrbXMGtDHHXUUXUev4ZW2hJmh4CAAACBrJlvjutfsKHx97xJzSP3cVA/WDaZNSt+97vfVaOvkdfoS403D8TzgwJs6Kpii+V55523GiRBh3kgbcLmIWn/6iZ8hd/yXN4yi+WXv/xl9eIoR0FBhyqW0UPIgQQEQyjUsYrEiHNWj2P6GYuToCRwT0dQoKJI2l9l3DR0nHvEljGttk022aRceeWVMyhpZDtWqy0aYgYTMl2R+eYagWZ6niNrwjEfAgLiadFvuummte4AKk2n6SloBwi8l+dYaZHZLWy1TZqmZ9rSrHv9q3vyMsoTPnNw7Z3vfOdM01qRGUf+RocDCQiGTNZ+xH7InltM0D/jBy666KKy4IILtkAAYCABQf8VsIoY2s7QYQw5bIV7D8sKH3zwwa1lim21IccoU8NSrmOQNdK46L/0pS/VVQLJA2lpCAzHPDbD3gvlGktcM6bB5W5Jl7zFsQ3mlWvmV8o1ZipcffXVdW0FlzOO6ZCvZj7yvD91Ez5T15SnfF122WXrstisR0D9yd9ociABwRDKPRoHFbbKmY+d9QcYcU4ftQohKmTjkvZHCctHeKyxk98oZ+I4DLPxzNprr13OPvvs6mLXwFJVo2xj1Y3xAgIML+55vAPMViAfpGM+zIv5a1LzKOU6+ykwTY1ZDwwSNF3S5DCv1rd2eeS+++67r66YiJfA/JiOeWzmJ8/7Ux/lr/yGrwsttFDZeeed69giwGT+RpMDCQiGUO4qZYqGYlZZE+ZjZz44fcFscYtSaNdiSOXbH+Ub+ajhIw6lLADg3Gt4afDcHHDAAbXvH1kiPw0v8ovytfpGOfsMewgcd9xxZbnllqtpkZ5p6g3SOMR8GtZgSInneYz4WWedVQcrmhfTj+fmTWoZuIdVE1nOmIWKYvkNkw7pmpek/auPyhzKAW8ZX/K+972v3HPPPXWaqDJLOlocSEAwZPKOipmica6BIEwfLoOH2Atdd63GQWWcirh/yjcaMviqAlYpe91rjOVYYYUV6px/VvcDDAACohyRZ/PHde4TPLDOxK9//evyqU99qu5bwPsnAwhifp2CyGBF0jF/5CEe7fLIdfJIPQSYsusi41iog4IVeBLTk0dJ+1Mv5bN1Dr4yi4TtsPEoMe4EOeVv9DiQgGDIZK7CjS01whoR3Lw/+clPyoc//OHWqPMmINBopQLujwKWjyhgDs6lhjlHDngHAGu333577ZePHgGNbbsqyzXvRdYsIHTJJZeUd73rXXVamQYW6kHaxpvHSM0vVDBBmAGPvJd9MFhsyHTNn7SZT+PJH6AAD8Zpp53W2nqb8lsXSSfmJcP9q4vwGLnDU2XMgNEll1yyrk3ivgbKqynHPB9eDiQgGDLZ8hFHAEDx4oeNq/bcc8+to4ppjaIQNAoqh1S+/VO+7XgZec51+U8/P4P2zjnnnGosMbQM1kN+yrFZXZUtFCOL7Gl933XXXbVb6LWvfW1dBAgjYFoYd/Nl2p5Han3gHp5h7rpxL3rRi8rXvva18pvf/GbcgMC8MgXxjjvuKJ/+9KfLS17yksoH0jGNmJcM969ORnAHX5EvgIApyMcee2wdyGpdsu41612eDycHEhAMoVw1Es2iYSxolX3nO9+ZYYYBCljFYDgVcP8UcJOXGmENn5RNjLbYYotqzJkaChjAuCM3ZdpU1MR7XfrUU0/VLod11lmnrkwI8HNVOtJupt/Mn+fmC4oRcSEhnud9TItktgp5NX+RNutfvCbYoTX63e9+t6y44op16itpm675SNq/uqjspfBWeS6wwALli1/8Yu3KiV6fphzzfHg5kIBgeGU7k5LGwLCozKGHHtralz62yKKSSCXcPyUsLzF08FieE0+cSpldJ5mfD2hDVhh/D4298RhXflCucXAv58iYBY0WX3zxasR1EZu+BjfmwzxG6n0+Z/3gnGcZmY6XgFkr5CsafPMXPy/zSj65nzzjJWBMy8c//vE6yJX0Y35jfjI8uTqJ3KKXpylfACkzSOyusl61k2WUa4aHhwMJCIZHlrUkKmVOVMB+2LQ277zzzrLXXntVQxSNU1QOqXgnp3g78Q8ew/NoWInjfkZ50+K+4YYbWpsYKTcNPfIkTLy/KGOMLC07BoZtu+22dVppNK6mbf7Mh+edqHWD6zwDGICS56222qrulMfYFPMLJV/xF/PJdfIpMGBp5SOOOKIsvfTS1WCZT3nTKV8ZP756Cj+bgMA6wDW6bZj1ce2119bBosozyrKdbKOcMzzYHEhAMNjymyH3fLjx4GJUvgACVihk3XKUqcYiFev4FOtE+YXSRQHzPDTy/3Wve135yle+UlwYpinHGQQdxoVwn4qbEf+MED/55JPrADENa6TkgWMiZeA5wICeBfK//PLLl29+85t1GiEGXkMf82/YfFIW4gQ3PHPVVVfVrZmZ+ULezKd0IvnNZ2au18o+1gkBHutfIE+6gRhrpIyg/pAZR/6GkwMJCIZQripgqYqYVtyll15a15FX6abSnFlpThVPBAG8n7CKmPOPfOQjdV4+iwkhL2UXlXGsqsQrVw0r8mUq3957713mmWeeFvBQ+WtcNQoTLafP814Wt9puu+0KuyCSvoCAvJrHZhk4Nw5K/ul2OOyww+r+Brw35tX0JprffO7ZOi5vrRPwxjimHi611FJ1QSzGoSAb5KmskKl1LtbFDA8PBxIQDI8sWyXhA25+uMRhbM4888y6AEk3JZkK+FkF2o1P470GX21dE0YR08rGqLJQ1AMPPNDqW0deHi3BNgLIWDAAdUtrNqpxIyMVv0q/n7LlXa6qeN555xWMCAaEfPGzHkLjOdctG5Rn8F4xjZGBkORd7wlp9DPP45XZsN1vPYhgVB7TnfCa17ymrmLK0tTIxvqlvJp6pQo2/4aGAwkIhkaUzxak+SFzhTjcyYzoXmWVVWZyGasUpMOmCKdLeeAvxg6KcsagYgTZgAj5aFBVwNBOP5SzLTgMKoMJ6XZgeWEVvvKUToYP8R3knTQ0InvssUedgkg+Yt5jGOPSrnwaHVbJ++pXv1pe9apX1YVyNF6kO5l857PPAlx5CuWAN/AXWTKLhIGiDEh1R0sBgCDO8051MuMHmwMJCAZbfm1zjxJWyRL2I6Zf8Fvf+lZ505ve1FIEKnkVRSrPZ5XnVPACPqN4UcDwnlX6MOK4+h2pr/LVmLYVchgfwv2ACfrh2Y2QwWHKNdLJlod3mW/CtuIBNSxUxFLELFREvjH8ziSwHNZDz6WWl/p5+eWX17UYWJOhn3mfbNmH5fkIAuAv5VKudBmwCiXeKsCZ8pFG+XWqkxk/2BxIQDDY8psp9368AgI+YsO4lPnYF1lkkZYiiEpXBTEsym86lgMeo5RpWeMaB5ydf/75LXe78ot0JiEHdzzyxfDi4mV9CQYnotinquwROBIGFABwcDWzO+Nvf/vbakhivaMs8dywZaR+EmYMAgsV7bPPPmWuueZKQPCc/oPTdt84cQA91quYb7756loETD1EJv6UoTKL17wn6eBzIAHB4MuwVQI/VhQuLTSBAOccrI2/7777tnY5bKccpsqQ5Hv/rtzhOQfGFNe+yxSzuI+GUTlKWwIOAa4pV5698cYb67tYVhjlDr+nWr68H0AAuGHlwvXXX79ceeWVddqkeYNaD6XGWT7LTXcD2zX/6Ec/qlMQARqzohyjVjfb1QvqI/xmMCp1krUhkFP8ca7MoPkbPg4kIBgimUYj0Q4Q4M5lDQJcyqOmBKdLeQUDGFJW5/v+979fdw1EXlHZxnCnKooh5TmAHnsCvOc976lK3VY8tJ/l1pBADZOG3Qj0PzNG5fe//32dx2591OB7jmHxIC4CBcANmzJtvvnmhYVyyL9p9bMso/wu64c8kL/IEc8MG2JdffXVVUbIx18CAjkxvDQBwRDJlo/XQ4UbKYZjt912q8vZqgyS9t8tOxZPUcCAMhYPoiWGq1yj2A4YdKqiyJZWNW56lpxlLXpa6/btNwEBCp9rGgDySTiej5X3+AzPkYYGhjKxxgUL22DYmwak27kAFspKjT/4wQ/quATS8/3jzWcvZRnFe5p85FxZzjnnnHUcChugIS/BHHWwKb9O9TLjB5cDCQgGV3Y95ZyP2AMPwc4771x3qxtFRTi7y6ziJR90Fxx99NHloYcemmHkfVTA3QSssmb8AKtP0qqjdYfB1+ir5KNBJQwwiAMbJ8qX5vtJly10MeasPuggSUCqxsS6aP5tgXKvoIjljFmxkQGSDi6MeTRdaIzP8MTALXyUpwwQXXfddetOmchIgEpdVIbd6mVeG2wOJCAYbPmNmXuVMcr2scceK9tvv33t703lOTHlORm+aYwZvPWBD3ygbkPd60JETUGjnDGirE7Ioj5nnXVWdbMzSpz3Y/TxFpgm5yp+DLfXJmNUfR9pcHDOgFUGBQJS8BLosRLoCAQ0NlB+lEXjA2XaG/sksHKe7zavnFMG6GTkkc/+/RuIcgQorrzyynWgqwBNGTZps07m+eBzIAHB4MtwhhLw0cYf5yhdXMssfENLktHtqQxnDyDAEGM0DzzwwNaIfAygxjDKrlsYufIMgACKm51VKHfYYYc6II/BhXoBAAMCAoyoBpY6EMPjrRPRkPgeug0Yy8AURGa1CAQ0LtRFD/ItICDsOWVjGiVTELfccstWOfR8kBblgY43z3n/zPVeOUqZqXL66ae3ZIc8PKiThJVbtzqa1waPAwkIBk9mXXPsh9ukGA4Ga7EZDW7BVIwzK8ap4IlKFsr74f0aa6wxw5x9W/rjUbLKF0PLgTFlHv9tt91WF5Zhkxr2BdCIkr5Gm3xwzjWBwkTLHstnmMGArHdBKx8gSrmisacCk39BguGml+A3v/lNXaNh3nnnraCA6ZSkYf4NTzTv+dyMHgL5ueCCC9b9MJAZskF+1jfPx1NXuyqsvDitOJCAYFqJoz+Z8ePlo/Vjdo73FltskYBgCuZ3tzMuKFiMsAfegde+9rV1ACBr/2MsMYoaQsLIrpefihmlzXugPI+c77vvvnLGGWfUPQYYaIingDyQfgQInGsE2uW/1zjeEQ+mIH70ox+doUvE/FkfzX/znDJ4PPnkk4UlkfE4AG4EL+bZNHvNZ97XHgTLR/nKSpEnnXRSrVPIKdZL5QbN3/BxIAHB8Mm0heZVrChdPAS33npr7WdOD0F7xdhPg4FyFQjo3sZQYtxYiIhBd8gHMCAgsDXdS5VEpspXY+s5g/IYrHjNNdfULoRlzSeyDAAAIABJREFUllmmGlQAgCDA/GkE+ll20mAKIlsas66A+cKIRIPSDMfrlA9w43bdCyywQOUn+YSv5Hsq8t5PPgzKu+Sl/IyAwHqGbPhxzpG/4eRAAoIhlKsfrcaGcwDBLbfckoBgNngHBAS40hnUiXcAoy0g0KAjr16VLQqa5wQRPIcB1evANfrwWfmP7YkBIsxCwFgLVKJxnQrj9clPfrLOZ6fuaeyh5LXduZ+i1+EPM2PYkIulkekyMM96C6Yi36P2zvEAAsGdsko6XBxIQDBc8pyhBWbLEwWLUqZ/mUFaOahw1nkIMFwcjt4+/vjjW2AA5YpsVLIYyfiLRrNdmGcx/F6LhhTZAw44aKXjemf8CNMdyYtGYCqN3zve8Y5y7LHHVqNuGcmjh/mWD557nTIAcqi3n/vc5+q+D+abrg+AzVTmf1TeLU+hlDl6CJQbsuEneI31NMPDw4EEBMMjy1oSjQInhP2gAQQsYEOrLQHB1AICFGt0axOmD5wZADfffHPdhlo5KR+NIdRrUMMoYo2/Stl7vUelHeN5P7J/4oknahfCfvvtV1ZYYYW6OJWt7OgxMO/RGGooYlwzzD3x4DobNzGrhcGs5CGWx7xSTwk3D+/lObpXTjjhhLrvg0BA2sxHno+/bjflBiA4+eSTq+5ADtQh5WXdGzK1mcX5Pw4kIBiiqsBHq3GgWJ5rFFhSNqcdjl9hjsfIoFwxsBpbnuWcqVxsK8taELTaVbAaPuWFrHT7ey3KkTD3KGfOPdpVZa+hyJmFQBcCrfa11lqrvOIVr6jeAoyr+YVyWGbLAzWuHdWoUFbv5T1stX3uuedWLwF5MN/d8mqeodzPc4yH+MQnPlFe+tKX1vzFdNrlJ+N6r+fKTrn1AgiQTf6GjwMJCIZIpipQP1bPNTIAgk9/+tPpIZjCcQSCAYysCpYwQOynP/1pdYErH6oeYc+Vl2MJPNeIIsemUY3Pd6rK3MOzvJcWNwsZsU4A3iIG/9E3T74xohoHwxj1Xoyvz3GvAIN3sObCnnvuWdfA0EvQLZ+Wx7JD+T388MMVyLCroryVv2n8ezf+7Xil7ORn7DKg7lF3lAPheN5Jlhk/mBxIQDCYcmub66hMucFzPmqMAUqVteYZ7d5OMWTc5BQr/EOpCgoMsz78kUceWe6///6WMlU2KloFGuNVxgICqGHvb9L4vHUA2QskCNMvz2C966+/vtCFwHLDLGSk4cfgcngO5ehWPzQq3McYBccpUNfwRrBZDoMcm+Vt5t/zWA4MECs6Aqje97731e6XmLdu+cprY9dpZQeFXwCCE088sdVFFescconnyivpcHAgAcFwyLFViqhw/Xj5gDEIDC7bbrvtEhBMgYdAZQrVmKJcGTvw7ne/u1x22WXVICILj6asFCLxUXaeSzGQ7ZSy16W8jzCyt1VHmC4JgEHsQth4442rIcCQ4xXAa+CMBMqkASbc7tDwWn7ewcFeBHaXsFAR+e71R965nzxzsFDRoYceWpZccskKOMgTh2knHdv4t+NRlCfX9RBQR5QB1B/heG580sHnQAKCwZfhDCWIH6qGB4pBePTRR+u0N1qD7RRDxk1MocI3lCoUA+Vcf8Ks+nbAAQeUe+65pxph5IM8opwItzv3XmQnCIBqINu9R5k332cd4FnfB0Xp05XELAS6kxZddNEKGCkD4ACKYY9Go13YuuM1znmO55nuuNlmm9VdEPFO9PqjDJab/D/11FPliiuuqB4HPA+klYBg4nW2KTNlRzfPqaeeWuuZdSzWp17ll/cNHgcSEAyezLrmOH64Ggcp690zfSsBweSVqMq0SVGqGELimc3BRjE//OEPC6vuqVybAkRm8Yj3EcaI06qnRY8M6YsnDmOOwfRZ7zWOdLjGufcLCHiWsM+QP7YtZo8FBgLSssfY6v4nrMFoR+WD90EFEoCCJZZYos4UwEtlfiNt8oRz8mZZCFNuul122mmnutUzaZhu0onX6ShPZMV0UQaCwnv4jpysS4bbySvjBp8DCQgGX4atEkQFS5iP2Q8aytSzBAQTV5zdjI5KlXsIY6wwggyo+9WvfjXTYEKEFuXleZRZvI7Bvuqqq6pR/cUvflFlGY06z2n4NaK+MwIH7gNc0FL3PsEC/fR4Mr773e+WD33oQ+XlL395q/sDQ0GZPCyvVN5Ydu538B/AgP0ImHZ53XXXtdKN5WtV4hCQF1Dz+PTTT1dvxqqrrlrBiukmnXi9VobI1u2PL7744qo74LtyUh5BRBkcMg4kIBgygfrxNinKH6NC6yo9BBNXnp0MT9NQYhDZxIhtieG7rXHkwg+KglVO7eK8B4N+++23ly984Qt1DQGm37FXAa1ljLhAIAKEmA7XSYsf1HPfbxzPs2Uxff10IWy77bZ17j/1xXERGg+p5ZYvxAMAOLjmfYxJYPDiKaec0pqCaNnNa81g+PM6+RXU4CUAtOy44451hgTpmgY05iOeG5/02e4teaeckBljXjbZZJPaNQPfOaIcmnU2iCuDQ8CBBARDIMRYBD7eqPA55yOmVUjratddd60ffSrGyYGCaIQ0PMahYJkvz1RD5v3DewHBeBSqsmNGwDnnnFPWXHPNavzYYhiwwboGd911Vx2sSIsfYxkVuM+TdownD+bDMPfwPIaXg+2Hb7rppnLQQQeV1VdfvbDssl4CyikQ0PjLgyYQ4D4ND+/Ya6+9ap7Jr2lD+ZFfjvjjGnm3TpNPxhLQx73OOuu0vDGkT9rKwHxlPZ+5nssn5RIBAYtJbbPNNtUbBa+VCXLgHGq9inLK8HBwIAHBcMhxhlLw0Xr48aLkmfZFKxODkopyZkU5Hp5oeCJVwdLvzmqAxx13XB3IiQw0tCrUGQTWOInGGyV89913V7mxUyJpoMAZn8CmRbvsskvdVZDV/Hg3zwJAOOJ7VOxNyvujoicssDBtpqCxeyELGdHSj90BlJ/82D0gD4zX+HCuO/qCCy5ordZoHmN9bbCjBQa4Bz4CJug2YQqt6WrUSIf8ka554RrhPP7OA3kV+SHfAG10K8JfZOPPuhXrj9eSDg8HEhAMjyxbJfGjjUqWj5tWH4PG5plnnlSOkzQQKNDmoQHC8GFA6S/HBY88BATKpiWsRoDryA2KzGgNX3jhhXVzn+c973ktI4fR45y++Q9/+MPl9NNPLw8++GA15tHAWwd4FwfXoObD9GKa5NXnML4MBPzJT35SZ6gw5Q8wYtkxvOTFc3hAHEaHQ0BgmIWQ9t9//zqzAeBhXs0f6fozj1wjHgrQIcyMmaOPPrpOQQSkAMLIA+knIOgMfuRRlBc8Qz7wcb755it777133T8iykL+KxNo/oaPAwkIhk+mrRLxEXPw8aJM2WHvW9/6VnnjG9/YMiwogzzGzwMVqlQeYpiWWmqp8vWvf732xcN3wYCy6KZMueZ9gAm6HPDqLLbYYtXgxb58jSwt9/e+973lG9/4Rt0rgS4GDC3v8n3WBSn54oj3GOc95hsjzDtvuOGGunMirvr555+/5SkgH/IBCgiIoIA476GPeoMNNqh91HiszANpClaowOZbynXuJS/EwRsWKvrYxz5WAYp8QQ6mR5qmq3xGncKPyCP5QTyA4JWvfGVd64FxGvA5ykJZtRRMBoaOAwkIhkykfsQUi7AHHzMD0E466aTCCG2Vggoh6fhAQTSAMYzB22ijjcrPfvazOmYDQ0YrG+OqLKKMYvXzusaPboAf/ehH5e1vf3s1ehhZWr8aOc4xhFDm5dOFsPvuu9e0MeAq8GhsYxp6AoyDmjbPemCouZdysEEW4xm23nrrOq4AI0IePMhbPMib/CEewLTwwguXI444onoeSM/0TY/zGDZf5EOgQ34YVMkKkMyGIB3TpS7LG+Kybv+9biMH+AI/lIlh4pENHpxjjjmmenCUi/z3PNbZDA8XBxIQDJE844cbi0U8CpZWFaPHaaGpCFAMqTDHBwYi71SsKlu2F6ZFj/s+Gi+Nb5RLM6zCheJOp5WG4WSAIu+PBg8DjAInDmXOAVigD5hFgJiFgKvfdDXo5ok0DGOUOfhZV6Kh5j7yQ+ucOsRaCCx7vO+++5bllluughGAAXmQH/CIvJFP4jwnji4V+v9/+ctfVpBhuUmTemrezAP5Ig+WhXjACaCHrgyWM2YwHOmQD3li2pxnHf97HZcXTTkRT/1hrwh2OqRLBj57KJdmnc3z4eJAAoIhkqeKtR3lw0apo0C32mqrloKOiiGVZu/AQL5J4R196x/4wAfqoi4sIqQyhWLMNMCdqhxy414o7vRLLrmkjg9gkSDTQXFzCAIIe82+c1YGfM973lO7LZiuyLtIm0PFThqE4xHrjXkm3/EewsQxHoVtjVmzYL311qutdACKoCACAOsV+SRMPln8iC2N2f3RMsfyxzj4ZR68B3ACKLj33nvrSpAYMt4vSJIn8EdgYD5GmSoD6xHn1iHAFN1deIAYu4IMlIPUOtKpDmf8YHMgAcFgy2+m3PvBqjih/KAoUfqBt99++wQEkxw7ocGJlL78L37xi3XNfXitAUaZRoM2k9BCn7n3shEV7nA8DhhQ08G4aXSjseO6IAFKF8Kyyy5b9tlnn3L55ZfXHQ7JE/mwTpBWu4PrHNxLGbjHOPNHPACTZY8Z9MjIdGZBAIo0uOTJsEaHc8J4MlhLAFBhyz+mYRga8+g5eeM5DNf5559fAQaeh5gO6XMe48zPqFPrijyCIrs3v/nNdSdMAJ+8blLkkb/h5EACgiGUKx9w/IgpIucYBOatMxccBcChYoxh45I+6zHAqMAP+KSB0dhAGfG/2mqrlR/84AfVrY7SxGhGg2pVUz6RamihGFqmfbEwkADANDk3TF4EB828cc41Nqqhv58FkjDevJs0SNt6Qdj8RsBgfs0b1zwwxhycM1j1lltuqR4JxjvAC9KO+bQcsZ69//3vr14QvCmmaz7kjWlDYxxhnqE8DLz8/Oc/35o9QxrxyHr8bD2WFwICZKScGP+CTFjCGl0hv9tR60bS4eJAAoLhkmctTfyALR5xuFgfeOCBcvDBB1fXalTOMazSSPp3RQpvVJooUowbvDHMOVM5d9ttt3LjjTdWEAC/m8YsysLrUH4YN8ADlL5xptTRWiNtPASkrzyI6yYvr/MMeWOlQcDKt7/97bqMst0ZpK1RJ10O8xWBDHFci0a5eT9jC1jh8Pvf/36dcrnAAgu0PBvkw+4Mwpbl9a9/ffVg3HfffdUA8U55IF/kWaRcM5/kCS8BQGzFFVecCbTJC3k36lR+KIdI6WpyMS3k0E0GUR4ZHh4OJCAYHlm2SqLCbEWEwWIMFmIUMe5tW3Eq6GhkYniUlSh8gE/yg7AGWkBAvzV9r9/73vdaI+c1oBgsjnY/5RSNG6Dt1ltvrd06uNXhPWmbvufdZOL9yJU8csw555xl+eWXL3vssUfdipm+e/IYW/rmx3iocVLKQZhr0XhTRmax0NVBFwXpsFQxXRfkAx7pJYCSR1qkbA195ZVX1hkZtPY5TAva6RfvoTXLIEd2a3TGQeSB9bsbz0blGnyxThCm3PAHmTCVlIGibDOt7DvxP+OHkwMJCIZQrirLZtGIZ4AZi9hgHBhEpFFDOaAYoiIdFSXZrZwqUO6RRyhPjRvgAKPHQE0WIsKgoUwxUoKBboDAe5ANYVu7a621Vt1xkDRj/prn8Zph7jGvUvJLXgGCLJp09tln1y4EjDh5tUVoPqxD5o+6RJyUeMrp4X28hzp2880313URMPi0PKlr8kxKfWN9BVZ0ZEYEYEhAwPtMr1mPzUPM60MPPVQHODL1krTgBe+nfvfCM3k37BRe6K2RL/AJwMa2x8cff3ydIZOAoF2tG/64BARDKGOVuYozKldcu5deemmdesggLBQmCgLlQFhQAB125Tje8smfaGjgHUaNEfNMNUSRwu8mIIjGTflAYyubZ5jnT9cD79RwjjefyNJDZc+7iOMcA73SSivVbok777yzzhiIBp08WWeaBj/mnTDX9TLwHAdGHaCBkWeZYsYwUB4BaKxbdLXQsr/tttvq2AsNkel3+jzNh/kmPbwEzPIAoFmfMXSEx8vDYb6fOhtlAH/0cl100UXFZbDhcf5GiwMJCIZQ3ipLiobCVMlyjtFhwNp2221XXbYqTihKQuUpHWbFOJ6yRT4R1sCyLwRGiDn1tIwxjvBfQ2VYmXiuwUM2hhk7gLudVQfp9yediciE58yvrnoNAMYAw8yIcrZnZjAeLns8E4ITDLrloM408+659YvnqFcCA8pEHEYa44Kx//KXv1x3TqTrwjKRRwYg0qpn0KNTECNPYlqkF39es47TXXHYYYfV91FG0hHsjkfWw36v/IdyUF74RRcPoIoZBtbJyO8MDz8HEhAMoYxVlBRNZQnlh6JmqtdXvvKVuuANykAFoSEZdoU4nvLBE5Wm/OFcVzRr+2OEcFkz2h63t/wXiHkO/w2rcD3HmCKXQw89tDDYToNmmuYDOlb+fYZ8AlxYx0DDSL49SGPRRRctW265ZV3BkvQpg8CgmUfzT3zzmkbceN4hQMDAMBMAd/RHPvKR6pomX5SDfOEloO+aNRN4rl36tfK2+ZN/UAZL/vznPy8f+tCHZgC7ymosvo3CdesPFL4IbAGgAFs20rLbBp7mb7Q4kIBgCOWtUqZofNTxHMWNK5cd7BiApRLUiEiNH3Wq4pQvGlmUKa1vtiFmTX2MHoqUlrJGSr57blXjvAkW8C6wENGGG25YvQMoatIyXWg87yYXn+F+lT7GX+XPdeI5uIcNktZee+0KRmgh4qmIRplycMT6RP4tg/GxnD4jBRz84Q9/qHPcd9ppp7q+Al4K8oSXgIWUfvjDH7ambPpcfKf8i9TrUPiPl+FLX/pSBTqWz3J349moXEP2ltW6wTlLFu+8884V2CJ7+Rp5neHh50ACgiGTMR8yijoq8PhxE8b40FfIRiYqiEgxEiqNpH8fTKjyxLhoYFg0iP5+ptthjFCkGjIovJYa9nrzXkAag+tw49ua16BDkY90LJlwb7w/vsdw8x7SZLW/XXfdta5mSReC9QhqfikHP8rhdeI4mufGcy/Pc526xywKNmJiHANLDsNbdtn72te+VmcpcK/PSjt9plyXp1A8NOz/ALDCM8K7KetYPBvF69QFDsrOIlYsk/3EE09UOY3F907yyPjB5kACgsGWX9vcj/Ux07fL4iObbLJJazEXFWdUEqOoJDuVGaMCj1Sg3Lf++uvXQXNxYR1534liFDFaUF3qhBmDwOA6DaRygGq8+2HYeEcsA+UwDlDA4D8GAcbtlM0rFOADpXwYbsqAIeZcw2zZrZyc8wzXoXRLsPYAMx3YrZDpbnirGNeCyz/2YTff5TulvtO0eT/LGbPJE3tAxLJazn7wsVM9GYR46xRU/rzrXe+qK07GNSrG4r0ySDo8HEhAMDyy7LkkKHVGl6M0mWqEElNJpNKccVU3+SF/4BXAgJH68I++cYwiynOsn4ZRo4pBpYvhySefLKeddlp529veVr0PKmopeZhqI0ZaAAJmnmCgGdh4+OGH14WW6EIQvEAxuhy2+qNR7sQHjQv38hygiC6EK664om4G9da3vrWsvvrqdfEk0+Nen+vEW67H+zh/+umn65oQK6ywQotv8lA6CIZ7qvKIh0twCz8Is0LhTTfdVOXS5Gcn3mf88HEgAcHwyXTMEqHUWcYWty0L6qh4VJZS40eZqjBRmvKBPu+VV165DsSjzxoj1MtP44XC1agCDgAVe+65Z90WmDRIswkGiDP9flPLyDgDxkVQVoABdWPvvfeuRptyklfqjkCAMmg8BDecd/pZfssOxRvActrs28AmSewU2VxieSz++l7vI4/s2UF3DmWhfJ3457VO1/vN6+nwPsGfdRpZ452KK0bCS49O8sz44eNAAoLhk+mYJUJp0wo788wz2y73Oh2U1nTKA8YC5YkiJV+ssMf2vUzfZF0HjeKYjA+zDDCGGFFaswymoz8doMH7o5GaFYaKNCwb6RMGGEBxu2+66aa1rmCoMeAYXIxFExAAGChTp58GRn5BeRdeEmZpMK6FpY8ZYxD5ynPdfryHvPh+KH3hLGfsipzytF296nat3f2DHKecoYbf8IY31OXM8dggD+UjP7vxPq8NFwcSEAyXPHsqDR86Ltuf/exn1TXM4CsVxKwwQIOoUAEEuFppRTMt8KijjqoLEWEAVaC9MB/eez8GlGVimWrIAMUoA43UrJIH6Zg+ZaWclBdgQP8+synsQmBgoMaCssADymK5uNbu5zNS7nf9AigglQGaHE3D1O59xvk+Ke8FUDBOxlkblk9KWSNvCcfzQayjY+WZMiNPyyldd911y6mnnlrXoogylJ/yOenwcyABwfDLuG0JaVHhqt1ll13qCO+mghxLuYzKdZSm3gEoCxGx9C9gitbyeJQm96Jwbc1iWC+77LKy8cYb15Y4aSkHlfWs4rNpU0bCnjOuAHDAFEH65NkpkzzTmsSIUxaMt96BaFDaVrwwFRYgwfPyhPdhyB2k2eu7lIF85TnejQucmQvMYIh8JcwReev1GDdsYWSq5yeWjQ2Nrr766sp7eRlpJzlm/PBxIAHB8Mm0pxLxwbPRETvgsVJcVBCjoBxjebuFMZC2quDL4osvXhciYlU8DOF4fvBcI4fxwgVP37k7A5IPlHa3/EzFNY1/NJLEecADgAF8YDtlFv4544wz6s6ZzpjAAGPMoRqTbrzhPp6FasB5nhkI8FWg0Mu7SIf7ARTyFwrgYtAiAxbxgsk7y+U5dFTqPGV32ixh5MoqkoAnAZU8l3aTY14bLg4kIBguefZUGj90FDKtPTagQSmqKKVRYY5qGF7Yambw1QYbbFAuvvjilotcA9QT4//vJvhPi/qqq66qYxEEHKQ1O/hMunoClD3nHBpKqKPT8ZKsuuqqdS8EVhekRa8xlh+UsdOPaxof7tfTQJhD494ruCAdn7NuQ3kvXTL77LNPHSBpWeRx5HcMe30YKeWUD4xZWW655crJJ59cl5iOcol87CTHjB8+DiQgGD6Zdi2RHz1Kl4N15j/+8Y9XtzCGjwNFOCoKciylDx88WNFvv/32K/fcc0/lXTRCXZkeLvIMLWBaryzly1RDFDSHwGOsPPX7umlDlb1ljtR8AhRY6pZlm3fYYYcKKpk62RxHQF3r9IsGB57Eg3rpufd1eo/x3gf1WQAFCywB4NZcc80KaCiDZbK8/ebndH0f5baOEUaGDBjFi+LaD/Au8pJw/kaHAwkIRkfWtaR84IIBwuyuRz8rq9Sh6FEUKMqoOIibrkpuMvmiXB6+p3kOLxxct+KKK5ZzzjmnzgzQ1a0ClXZToPIezwyL57CELzMWTJO0ZoeRMn150ImSt3gv5+yFwJgKRvQzGBCXfzToGmfK7uEnF3nltXi/9/VKm+/gXcgJALfNNtvURZ/0cpB3wp3KOozxyI4yQykfa2nssccedQ8JwBz8U3a98jzvGy4OJCAYLnn2VJqodJmedf7559d59c42AAxE5a8CGUYlSTk5LFs0eMRxDlBisR4M+M033zwDoEKJwk8UKWF/Giep8dyHi/28885rddWYtunF8+kehj90IdACP+igg+qaCpQvji2QN3hGMND8mnyRP8ZDx/uLz8bw448/Xo499tg6xTaCXsJR9tOd1/3IH+Xl++ZgZssxxxxTl4tGRvyoyxPh/XhllfdPTw4kIJiecpnSXEVAgOKm22DzzTdvtaBsOWkcof1QRtPxHZStCQqa+bSv1S16o7GBl3oLotC4Rz5D/WEUGZDIngG0rklrkPgsv6gjHPKOmQgLLrhg3U6ZzZ7oQqAPnwP+RH7IP3nSL+p7I4X3DFZkSWR2WgQEwHMNI3SQ+N+sm+M9p6zI7UUvelGdcswYIrw6/uBd/kaXAwkIRlD2fPQaK1oGrELHxibLL798XRyn2V2AEhmv4hmU+zVosYzRQMALFrfZaqut6jTNZssXPtoCjlUpGiWVLJSxAxinddZZpyplDVNMc7rzjrySb0GBvGNw5MILL1zBJUsx0x2FsQEUWN+g8iPyqx/hJs85Jz0ACaPoDzzwwLqrn54B8w2/5f905/1k82d9p06zkiNbXiOfyLt+yCLfMZgcSEAwmHKbVK79+DFkKEw2O8JIMcDIPm0MIcpj2BUl5aOcUdFaZigtX3aC+853vlNXv8O42OrVMwA/e/nB77hkNAY0GlXTjXmZbuGYR/hmPSGfXKM8rG7IdsaATDZtYsGhJs964dd477FeRyoQwWPBLogswsNgOvlKnjWSxg0rpazIi4Opxt/73veqbAS08m28fM/7h4cDCQiGR5bjLonKEsPGWALWkZ977rmrYlfRRwMwrIoylqtZXlyr7GrI2vgAJ3iF21/eQXsBBNyDd+HGG2+sa/az+h+GKAKCmI/pGIY35Je6QZg8yi+ohpV7uMaaDTvvvHPdTpl+fNcpgGedfhqlXnjafEd81rByYtDc/fffX+s4CxWZb/Kqx2A68ryfeVJGTJ9lLQkaAYABAQH8nAjfm3LI88HlQAKCwZXdhHPeVJYoTYwcbt611167LuKiwpT2UzFN13dh6DAQGDbzSEuKwXIs4qRHQIMmH6WdBMJ1nmF1P7YV5p0M4IS3GiTCpjmdKTwSEJBnQYBhrmFgoXhXXvnKV9aVGJmFgHu63SqE8q9JO/GzU3zzefkuKGBqHQsqMQCyyf8o8+nM/8nmjXIyQPaAAw6oXTrwhnot76zbnXic8cPNgQQEwy3ftqWLH7+tAygj6HfcccfWPvIoeY/JKqLp+DxlM1+EMc4aOxQn4Y022qgwSA7vAMoyGhmY6zm03Y94vQp4Bz7/+c/XMQl0F2hMTZO8xDyZt+lCyRt5No/tzuGhfIRieOeZZ546i+Xggw+uizHhjQKA2jqFytt2POw1Dl7Hg3d6EE+3BQspfe5zn6tT7uCrMojlmi787ne5vbn9AAAgAElEQVQ+kBdg7U1velNhgCxdOcog8q1Xfud9w8eBBATDJ9OeSqQCUBGjGOhnZdMepiOhzFWW0QAY7reymh3voyyWB4ph1jhTdtz6X/rSl6p3AP7Is6YSlYftGM81jB+DCc8999y6EFE0muZBSrqzgxe9pEne5A/3m2doPKd8AB6Mj/dwziwEjPGll15aHnnkkdbOifCzGw/hq7xvx2PjvCdS30sccmB3SaYgvu51r6t13PxRrunM+17k4z3KI8qEMGVkcS22OmZsh+M64JEHfMrf6HIgAcEIyl6FGYuOUkZh/vjHP6595rh7UZCxfxWFgrKPiicqH+MHhWoMyC9hyisQgjJ2gDUa6PuOv3b8Mw4alSvneAhYQpdR7ijkJs+a+RgU/nXLp+ABannhKe5q+Prd73633HnnndXzAo8iKJCHUMPtQJjGPsqmU5j3UL852JjKhYrM37AAAnhNWeR5LJfTZ9limu2m4R98pX5yOIMGXuVvNDmQgGAE5a6ijUUnDuVwxx13lP3337+6eVHgUbmgZFCgGgLOVTzGDRI1/5TJfm/jAER4B+AHynKsnzxFyapgieOcqXcXXnhh+eAHP1gY0BV5ZHrGRf4aN0jU8kRq/qlLlJ+FjN74xjeWPffcs+6yh+sansEvfvCM1iv1Ub5Gyj2c8wz39PLjfu7l3UxBPOyww6rHInoxzOcgU/guCCBMWahTHMwgYpYFOxvisYIn8EM+EyYuf6PLgQQEoyv7mUqOQvjjH/9YLrjggrrpiQOvUCYqFxX9ICvNZt4pn54ByofRYqohA9DoRulVSXKfShZjBT9pkdIaO/TQQ+vy0Chr02/yknPy4vVBpO3KRBxlsXzwAMC1xBJLlM0226wOtHzggQeqJ0YDhZGKh3zVeMlraC8/7vNZV4pkF0Rkbf4Gkd/NPMtjqAd1my4bukkAuSwxTb2UpxEIxHAvfM17hosDCQiGS57jLo1KQcr0LFYu3HrrrWsfOgoHIxUN1TApUBWqyhNjhVublQRvueWW6kYdD1PhIwfGB1CAd+C6664rW2yxRZlzzjlnMPbwNPKScOSzeRskGstDvi1TLJdx8Jo1Adg5kX59BvzRcqWLRsMEHw1D4SkHPB7PT5n4DgZ40pf+spe9rPK8me9B4nkzr9YryoQHhIPps+xqyloM8Djy1LA8Gi9vxyOHvHd6cyABwfSWz5Tnjo8fhWDrCWVLi/bb3/52XXVOpY7yHialqRKlTLFcKM83vOEN5cwzz6xrM+C67kVBck+8jzDPMl2R/nJc5LqnTbsdjXlpd30Q4+SxlDIYxnjBF0a+77LLLnXnPQb+UQ+pl7RkAanWT+sqtNcfsuB+D96FR+Loo4+uKxfqHYqgZdD4LD8jb4mDt8Qx/ZO9OFg9En5GPsofeD0evvbK/7xvcDiQgGBwZNW3nKIAPFAAhqEoYhTytddeW1ebo2URlUxUlFEJxfhBC2MIMAqUhylybAfNKGwGWcmfsZgvD7nfZ5iqyFRODB2r95HOIBud8ch1rLoBHwSZ3MuAt0UWWaTunHjSSSdVw+VCUAArZAGVv/J4LLlwnXsFFNZxuoLY9pftp+kao2zkYzxlnK73Ug66COCvfH7ve99bzj777LoORBw8CD/4wR+BQi88zXuGkwMJCIZTrl1L1c548YDKEsXAtDAGXq2wwgotZanCjNTwdFWOveQLpWkrkbEDtBwffPDBcbum4Z8GizDz7VmIaK211mothDMM/BqLp5QRnnYrK9c5eBf3YbwwYgCnVVZZpbBmAaCUMS0AAQ/5qweha0X/v4vIogkIABu/+tWvyic/+cm6LsRYZRqU6/I+AgL2Ldh7773rNtDwAV5C/eah8FWewq/8jSYHEhCMptyr8UcpqChhg8oWCihgud4Pf/jDLVc3ykaFoyLnfFCUZbt8xjK98IUvLJtsskltOdL3D2/gxXh+ggKU6z333FMVMV4HPRDt8jBscdYReRvPKavxltvrggjOF1poobpI1iWXXFK7XWjVxoFwhDVqvchHuSBPnkM+gN4jjzyyLLnkkgNdhyMfAVYe8JMuA/aVYCEiVmqUDxp9z+GLYa/1wte8Z7g4kIBguOTZc2n8+KPB0wASx8H681//+tdr/7ctaN2Q7RS7imlQKIZH5Un52I6Y8jItDYPBAU/g1XgOeEcL9PLLL6+AKhq6QeFNP/MpAID63hiOcdYv5EHLlpUi2YSHZY8BafBWMGA9hfqzXkP5xXPui3WcrjHW3XjLW97S1Zth/qY7tT7reSG/dMWwRwkDZAVU8iryB95EXsV7Mjw6HEhAMDqyHrOkKIR40KJg2d6PfvSjhdazxhOK8tHQTXdFGfNHvuNBWTA+KM6VVlqpXHzxxa1R2AACFWUn5kV+qVBRvOxbQJfLcsstV42ggCrmJcPPaQGEdrzA7T3XXHOVFVdcsey77751QSH6/nF5R1Bgi584QZxyg3Jwj90OhDmYfshYEeTeLv1BiovfI2HyzgwOxkjQbcXgVviQv+RANw4kIOjGnRG7Fo0bygMFypzlb37zm2WppZaqRhNlYytu0AEB+efArcpyzQz+Y+qbLSl4IE+6VQXuwcBoeABSGBpatw7KBBDAt0EyMrM7r9Q1QAHyWWCBBconPvGJusATW0hjzO0L19jTreDAOMGZxh+ZMp2R68RxDri45pprqtGc3WWdbPrWZYEB53S74B1gGjFlhyf5Sw5040ACgm7cGbFrGj8NHK0tjJvz6JmzjcIRFEAnq8hm9fPmH4rShOL9WG211co555xTB7E1jUnkS7swQABjBL84aI0xUp6pdLO6fMOUnrKiTIApln1mLv1xxx1X7r777lo3AQXwHBlAm4CAOGTDEUEbzzG9lu4IppkOA9+s03q83vnOd1YARddIr+B2xFReFrfBgQQEDYaM8mk0digQDlpSjJZn5D2K03nNKh/oIClTjQxgACPDQV/1pz71qXLXXXfNsChO5MdYYRUuhgZjxcJO8803X4s3pEOag8Sr2Z3XKCPCGDpWFlx88cXrnHq6s5566qlaR/UAYPitu8giAgQAAee0lpm98POf/7xsuOGGrZ0PZ3d5x5u+ddlvEGo9Y1VCulkYewEf4En+kgNjcSABwVgcGqHr0eihQGxRMUAOL8H2229fVy9UEal8xqvIZuf95l3lyRz01VdfvZx44onVhUyLEuNC2eXHWFWA++QXhoZxCHgHGJdAWU0Lfs3Osg9a2vDNrhZ5SBcCx8ILL1wHbNI/fu+991ZvAbLjEBBEWSJPDCNx1OebbrqpLuP7qle9qi6jzPsHiT/k1wOwRFgAxV4RLAnNrpICJnhCPc1fcqAbBxIQdOPOiF3TAEJRoCpXWlUYuh/84AdljTXWqHPqUT4qokFVpChRBl6xrDCtRTbZYSQ73SRQWpK0OCl/LwfPsRARuxrOPffclT8YNPlEeoPEq+mQV3gGkIoHPAUUsD01azwccsgh5Re/+EVdUEswpwGkDiM7KIAA9zlggL0lBG0a0kGRD/n08DsUOD33uc+ts4KOOeaYuhqj/PB7TlAwYkp9nMVNQDBOhg3z7REQ2OKNrS0WckH5MliJ1u+gKNBo2FSk5p1Bf7iNTznllDqKHcOCN4RBgRj3W2+9tW7TS3dCPOBFPGd7Y9ZtYE1+dpRDMZOGitr0Yl4y3H2WQQRS8JFDA+g1gALucZblxTPD2gKAOAxhPPAKsNgU21l/5jOfqd1f1GE8RLxrkGRhHY68EDAxK+NjH/tYBUhO04wAPwHBMGvwyZctAcHkeTg0b4iAgHATFDCym+Ve11tvvbqFLUpokBQpeVWZQsm/7mc8H+uvv36dGcA2xRtvvHHZdNNNq1uaaZcem2++eQ036ZZbblkXNWKVPcYOqKChGrJB49Xszm8EUQIAZQhfNYjIkDUkqJf0m7NLJeMLWOmQg/UgGIjILBI8CiwUBWBDLoyJIcz7Znd5e00fvlh2qLxgfAUDCU8++eTy8MMPt7q98A5wJBgYGlU9ZQVJQDBlrB38FwsK7DqAsikMm/Usv/zyrT5ylbWKSsXGeVTqxs8uan7Mp8oUg4IyxVtAF4IH+8f3erCTIffyHgFA5Mt04sPs4n+/0o3yg8ccGHX6zhlwCLgD1AnimP7JWgbMUmjKh2eVV7/y1+/3WG95L/kFxEABAhwCm8UWW6x8/vOfr9MMo3dAL18CgsHXyVNdggQEU83hAX+/oMBWBq7XO++8s47KZwc1lbNKC0XFgfKK1/qtJCfyvmYezSuUa53e6XPtaCxn833d3tkprYzv3o3QTgYaRVvKGEhAHl0CHIS5pjya75juPKdeWTbCAALKyKGnAzAKCKJLhLEwdJcIBPh2CScgGHBlPAuyn4BgFjB5EJNAeahAoI7QRrkwcvncc8+tc/dRShpFFa0GNp5PB6Ub89POeHu9mVfju9H4vlj+5rvyvLvBH4s/TRnAa40jYZ/nviiH5nPtzn12OlJADeUk34ADgA7AgDEQnLMfA8tuM4YCMOBASoAA53j3/J4HUR9lnmcNBxIQzBo+D1wqKA9bFREQEIeyoevgoIMOKuwOiAJF+dqK8Twq3emgZGN+yG8ng9HMa3yuU9j3xXc235PnkwMD8K8T/41v3hPl4T2d6HSVD/nl2+IgTJn0egAKWEdj1113Lddff30F7oB2u/kMQxMQDJwanuUZTkAwy1k+OAmiQDxQKIABDpQNU/Kuuuqq8tnPfrZOsaP1gsKCorCk00nJdjIEMb5TfuM9vYQ7vSfjJwcKmryP/Gxeox72Cgjie6ZTmDJFIOB3RrmIZ7wLg2EvuuiiOjU4egP4dv1uCQvwB0cDZU5nNQcSEMxqjg9oegIDFQuKhrUJzj777PL+97+/DshDSdFisY8zKuPpoGSbBiOe9yN/vq8f78p3tAcO8lja5BPxzbhBPqc8eAMEAIQ5iKfbYJlllqmDfNnfAc8dUy7tHojfrOEBVT+Z7VnEgQQEs4jRg5ZMU4EIBIynJcK4gvvvv78ua0wfJgoKxcVAJyiKGGp4uinmTkZluuUz8/MsOFBm0iZvjIdyzfPmfYN0zvdjOfAK+D0xo2KPPfaoyxMDBJreAD0CevYGTQdlfmc9BxIQzHqeD0SKEQCQYZQKCoeDa4aZdcBe67vvvnth2hOKC7dmVMgqsFmthFWi0lmdfqb3rCHvFy+UZZP6fuKjASU8u+qfeZosjWXlXZwzhZLliS+77LK6XTfeAUB6/DabgIDz/CUHunEgAUE37oz4tQgKoqIh7AEwYM4zi7+w4h99mihgxxCooLspRe7pdn2i16Iinao0Jpq3fG5iYKEpU8/lZ/Oc+Oku+2754xpeAT0DfFt0ya266qq1q4CdNQECHIJ0wEETDHDNroQRV2tZ/C4cSEDQhTl5qVTDLx8EAZ5DBQqPPfZYOfXUU+sCMIAB50erqCNVaUMFD92UYnw2wxMzpMm36ck3vwHl47cRz+OYHMYP4Inbf//969LZAAEMPQbf79Ow36fx0vj9Zjg5EDmQgCByI8Pj4gAKBmXEQR/mbbfdVg4++OCyxBJLVEBgqwYlR9iuhKj0vDbobl0VeNLpaXino1yo83wXfAPmr/ltcI+gme+H3RlZgpkNmp555pkZBhGO6+PNm5MDbTiQgKANUzKqNw4ACGILhZ3k2OCHbZIXWWSRFihA2UXlZxjKNUFBVIwqyKRpYIe1DlD/m9+A55bZbwPgwO6O7MzJuAG+NYA431+ODehNX+VdY3MgAcHYPMo7unAAZWT/JQqKqYjsw8468iyYooJDsRGGctDaQclFxWc4aYKAUagDfAeWUw9a/F78ZvhW2CuDzZvYlZNxA8zw4dtzrECXTzQvJQd65kACgp5ZlTe244BeAgYyoaSgTz75ZF2fYIMNNqhLq6LYVHhQFZ3KT6WYNIHAqNYBjL6AGSpg5nthDMGb3/zmOr2Xab4AcD0DjBdID0E7zZRxE+FAAoKJcC2faXEAQIBSQkEBCAhz/OEPfygnnHBCWX311Vv9pCo3QUFU/rG1FOMznCBhWOsAdd56HykAgIM4KN1vLBN+++23t8YM6BnAK5eAoKWOMjBJDiQgmCQDR/1xWygoJcGAXoNf//rX5fDDDy9LL7103XYWBSco0DsQFeGwKv4sV4KaTnWA+u93oWfAlQkBAwwiZEzOddddV8cN8J0JAvzmoHxz+UsOTJYDCQgmy8ERfl7vAApJ5RQBAvsdMPNg3333rVOlUHQoRhQdyo+jnbegk/LM+DSsw1gHAAR8E3wLdBV4sL34VlttVa688sraDScQgAq+/fYSEIywIu5j0RMQ9JGZo/gqFBEHSopuA8MCBFYyvPXWW8sOO+xQFlpooQoIAAIoQSiKMPafDqPCzzKNHpChfo8ld+7xiN8A3wUrEW655ZblwgsvbK1EKAhw/ADfmCBhFHVPlrn/HEhA0H+ejuQbBQYUnrCAAIXFSobXXnttnTI111xzzTBgCkWI5wBgoHIUMKhQjYcal3T0jOwgyZzWPvW4W56pz9zDwXeg5+wFL3hB/VbOO++88vjjj1ejHz1vfFt+b9D8JQf6xYEEBP3iZL5nBg5EUIAyYzrij3/847LJJpuUBRZYoG6EBBDwEARIoyIVEMS4DCcgmM51IIJX62+zbgsIAAOs7AmI+P/t3XfUbk9Z33/zS7FhQ0SxgKAUY5AmzW8EQdSAIhKBLwaFYIhBlCKJCoIgiAGFUEQpAhFQukgJTSR8QRCjiQUVFNSoCCiiYklZK//s33rts97HOZv7Keec57nPU/Zea+6ZPXvvKZ/rmmuuuabcV77ylac73OEO00te8pLp/e9//znbCykCozJwToNbb1YEDgCBVSE4ABDXJD4agaVCwMxp/zSl4O53v/t8yIp/R/zET/zEeYSUcFwKTUI/gXqUO4C1bKuCsokH4l3+pufi8DylwP+A3PrWt56VAbt0WNZSAvKzDHx0i1tjVgQuHoFVIbh4DNcUNiCQ4CLIWl9AKfjIRz4yve51r5v/qc08aQoAv/BuwnMnobrGrx3yUeOBkac3lW1UFkwT2KL74he/eN6ya0Gu9tJW3tpT/oYmt0atCFw0AqtCcNEQrgnshEDCq9GNqQP/eWD64DWvec28aKo1BUZIBCjBSVDuJUw3Cdg1blUKjjIP4Ot2EvDj8ytd6UrTLW95y+mnf/qnJwcPpQxoLy0grC3t1NbW+BWBg0BgVQgOAsU1jR0RSJBRCgi3BByT6Ktf/ep58ZQjjq0laMREGSAwuZSEoyzo17KtishePDDydsou35HELAMO8XrPe94zTxNQBLh2ENSGdmxk64MVgQNCYFUIDgjINZnNCCTMmjrgiyPsKAUsBZdffvl0tatdbZ5HZSlYCk/3ewnc9fnaKR9VHsC/S8VWHMvAbW972+mZz3zmvICQZSAlIIVAW1mvFYFtIbAqBNtC+hTnk1KQ35oC/3vwoQ99aLK96l73utesFDR6ItwJzSwFq1KwdvhHtcPfVK6RX+PjeNr2QuG73vWu04te9KLpfe9739m1AuP0WsrzKRYda9W3jMCqEGwZ8NOYXYpAdW/0k2LAUmD3wXd913fN57abPkh4piAkYPmFl4J4t2fLd9f7VcG4GB4YeVB45NPue4ef5Ytva+Fd7nKX6eUvf/n0J3/yJ2eVAe2h6YJVGUharP42EVgVgm2iveY1I0BBSOAJE4J2H1xxxRXziYbXvva15/8+GA8rIlQTtAlffkKXcC9+jLsYob9+uyoNm3ggPozP+KMlq/v4s3tnDTiDw7bbV77yldMHP/jBs2tqUgRSCmofq8hYEdgmAqtCsE2017xmBLIY5BN+BOFf/dVfTe94xzumRzziEdPNb37z+YyCUdDW4fMpCykMhDahyyWENwnyNW7t4A+KB+K1eNL9yIfu2zkjjI+vcpWrTPe5z33m44jttMHzeH+Tq22sImNFYJsIrArBNtFe85oRSNgtfaMk/33gD5Ee//jHT9e//vXnDt7IKgWAkCVc8wnkUWk4KIG/prMqD/vhAXxYxz/yYjwqzvOrXvWq0/3ud7/ZCvbhD394tgzg95QBbWG8ahtj3BpeEThsBFaF4LARXtPfE4GEHwFp1PS3f/u302/8xm9MT3/606ev/MqvnLdmUQhSAqwxEG6UVnwCvNFa96u/du4HxQPxnPQK6/SFu6cM4FHxTuK8xS1uMT3qUY+afvmXf3leRGvrbbyeUrCTQrCM37MxrS+sCFwEAqtCcBHgrZ8eHAIEH+Fo5wGBaQuWQ1pe8IIXTLe5zW3mERYhm7ClIIyCmDAehfRBdQBrOqsyseSBOn+8uORByimLFl51xsBll102PfnJT55+7/d+b1Z0KbzxuvCoEIydv/BO1oODa3VrSisC5yKwKgTn4rHeXSIECEACkqMQ5FtXYAfCt33bt03XuMY1zq4bIIgpBYRyyoC4LAdLIb7erx37QfFACkE+nktZxYPCDtu6/e1vP73whS+cPvCBD8zKAGVXJz/yegpB8Z5tcpeoWa7ZnjIEVoXglBH8qFaXEEw4pgy4F7YDwRTCYx/72Oma17zm9PEf//GzNSClgE84t84gBeGgOoA1nVWZiAfwFgUAr6UQUEq7Zx241rWuNT3wgQ+c3vSmN807CRzXvYm3d1MCjmo7Xct1shFYFYKTTd8jUzsd/l6XdwjJhOd475/f3v3ud09PfepT56Ne+2MkgjiFYBTUCfDVXzvzg+QBSkDTVlmn+HjPFIH1At///d8/ve1tb5ssHuzPiSi2Iz+nDIxtwvPcGL+GVwS2hcCqEGwL6TWffSGQQFz6BCjh6lQ3/xVvL7fjjo3IKASEPp9gJqDrBBrF8ce4wqu/Kgy78UDKpndGXhp5DQ/aUnjHO95xesYznjH9+q//+tn1Avg2JRdPr9eKwFFGYFUIjjJ1TnHZRoUgoZr/l3/5l/P2rYc85CHTda5znbPmWooAQc1PKRiFeIK/d7pf/VUpqMOnUHJ4pLj4QxyHp/BX/nWve93p/ve//3y+gJMHWysQv/Lj51PcpNeqHwMEVoXgGBDptBYxIcpPuApbdGix4Tvf+c7pOc95znwMrBFa1gGLujgCmzBPARiFfM8S9qu/KgV4IGWSn3IQr4gzRdUzUwQWDj7pSU+atxT++Z//+aoMnFZhdULqvSoEJ4SQJ7UaKQUpBHxrDNqaaArBMbAPfvCDp5vc5CbzPO7HfdzHnR3BEeajQuA+tyoBqxKw5AG8kkshoACMcZ/wCZ8wLxy8xz3uMT3/+c+ffud3fmf+22LrBLiRV+Nf/nqtCBx1BFaF4KhT6JSXbxSowuOCQ2EC+G/+5m/medsf//Efn+585zvPawtYCAj7BHmjPH6C3rOUg54vO4j1/vQoDfghKxN+iHeK43/SJ33S9KVf+qXTQx/60Onnf/7n5y2FlFMX/kxh5S9595Q35bX6xwCBVSE4BkRai3hG2CZwE7Z8Cw0pBYTyn/3Zn02ve93rpu/8zu+cjz02sqvDT7gn9Al34Z7nrwrA6VEARlqjPyWy7YPd4xNh/ud+7ufOi1mf/exnT+95z3sm2wnxHcXUFX+OisDadlcEjhMCq0JwnKi1lnUWvhQAQrepAz7ndEPzuNYWPO1pT5u+6Zu+afrCL/zCeScCoU4BoCSMJuBRUfAON3YUa/j0KAijskgBwCf8z/u8z5u+/uu/fj4H4y1vecvk77rx2qiYxoNNGeDP9VoROG4IrArBcaPYKS8vITy6lAKWAqM1AtkfJPlr2de//vWTnQhf/uVfPn32Z3/2rBikECTwV4Xg9HT4eyl3lEFWAgdfWSfw6Z/+6fO6FDsIXv7yl0+///u/P68VwGd2EqSY8sVlISj+lDfVtfrHEIFVITiGRDvNRW4kllnWPQGcc09hcE8x+IM/+IPppS996fTt3/7t0w1ucIPpyle+8iz0d7MS7NVxrM9PnhJBGTBdQCHwh0QsS3e5y13mXSy/9Vu/Na9TibdSSOPBFIF8z4XXa0XguCGwKgTHjWKnvLwJXf6mcMKYb9TGtOvcgt/+7d+enve8502XX3759AVf8AXzCLDpAVYCHQGrQXF88d1vUgJ2e7bp/TXu/BQJ+O7lsvCErfdHukUjfkrg+K5wz1gGTA/4h83HPOYx09vf/vZ5CspagSxQ8demZhhPbnq2xq0IHAcEVoXgOFBpLeNZBBK6u/mENgtB1gSKgaOPzf06UvYJT3jCvBvh8z//82fzcJ2IjqROo45m2bl4tw6kaQf3dTKrf36d/sXiFT2iV/d8cSONeiY+OsvfNlVTSne4wx3mvyl+zWteM08P+BtuVib8k3UgvjvLkGtgReAEIbAqBCeImKehKgnk3XwKAQHeOykG7ikG5oLf8IY3TI9+9KOnr/iKr5j/MOlTP/VTz3YSdS51HHUefB0Mt3xHZ3Oxndv6/fkrE3Xy+egSjdArJ9470dQ7pgbsHLj1rW89fd/3fd/0ile8YrYkOfSKQomPWAbiJb54fLReKwInEYFVITiJVD3BdaqT369PqHPj+wS7kd8f/uEfzn+t/MM//MPzKvJP/uRPnueRdRZtQUsJSAGog0kBqJNZO/Pz78wPArPw5+eiUbQbTxcU5955Aje72c2mhz3sYbMi4HAh51lQAHIj3whndVoVghMsYE551VaF4JQzwEmsPoG9VASqp2cUguaEdQIWHr75zW+efvRHf3T6xm/8xulzPudzZjOyziNFICVBXJ2QjkW8+4Po3NY0LkypgD+6cDDsHn1SBjwzNWBR6e1ud7vpkY985HzCpQWDHTmMLzhTBFkC4qOUg/ho9VcETiICq0JwEql6yutUp58QT0EY54KFbR2jGPApBqYSHGz0+Mc/frrXve41ffEXf/H0aZ/2aWf/UVHnT0HQ6fDd1wmtnfmFdeZ74aZz3+T6Dh3QIMVNOIc+WQMsJKXsmSayhajyXR4AACAASURBVNA/EjrIiqUID1AE4he++ywCY7zweq0InFQEVoXgpFL2FNcrBYDwzhHwOn6KQHEpBO59owOwxsA/1r31rW+d/7TmPve5z3TTm950Hlnam55FQKejo6pjWv2DVwg2KQLLOPSIJp51zxpgXcj1rne9+XRB00Kvfe1r52kiyt94yiD6pxDEG3hhVCDjKe8Jr9eKwElEYFUITiJV1zrNQrtRXh0+WAjzZby4hHxho0bbFX/1V3913ot+v/vdb7rVrW41feZnfuY86rTGYFUKDl4JGBWrZee/6Z5loPisNhYL3vjGN56++Zu/efqxH/uxeWcJawCa1vnXsUfveGIZ3/PRX5vXisBJRWBVCE4qZU95vQjwrqUw797zOoiUBn5hnQMrglXnv/u7vzu9+tWvnk3Od7vb3aYb3ehG8z8r6oTGTqxwHVX3dVrdn1YfDsu6b8JGHAzDkd9UwKb3P+MzPmO25DhM6Hu+53umn/qpn5qnBf7iL/5inhZAR6P+aDvyRnHR3jM8gv49G3ll5K3SWf0VgZOAwKoQnAQqrnW4YARSDhLy3Zegex1JioE/tfEvd09/+tOn7/iO75i+9mu/dv73u6te9apnFyLqsOq8dGQ6wLFzW3aIy/tlh9c9v3eXcd0vn3d/EP6Y/6b0PB/rOZapsOelUxys+m70w3B8XhwLjfUdX/IlXzJ99Vd/9XwSJWvAz/3cz81bBz/0oQ/N0wI6dPTj6uCjbX40jwfG+ML83hvj1vCKwElCYFUIThI117ocOAI6AZ0Kc7N5Z87ph3/91389L0J84xvfOPnb5Xve857TLW5xi/nIW3PX1htw5rLHTnBTRzrG6STNg+v46jjH58J1pKM/dqQ7fbdM5zDulb3dF3Xkm8ojrjJXD/etAShOx28KIDw/5VM+ZT5N0LqOu971rvMCUAtB/aEVJQBtxs6fErCXQoBp1s7+wJvOmuAxRGBVCI4h0dYibw8BysC4uMx9TkdjEaJta+9973tny8ETn/jE+Qx8ysEXfdEXTVe72tXO/tvi2JkvO+M6yBQB971fx8mvo+z5mE5peG+MP6jwmP5OZemdyscvvCyH+JQG6QlX/951/1mf9VnTda973emWt7zl/A+WP/IjPzI5TfBd73rXjH2nCUYXfh28MKUg537T1fubnq1xKwKnBYFVITgtlF7reUEIZCHIHy0FKQoUA5YDq9c/8IEPTPa2v+lNb5p+8id/cnroQx86H3p0zWtec7rKVa4yj3aXnd7YYQrrHHPjszrJ/J2ejWn07mH78lQvI/qP/diPPbvyf8y3d1gBKntl7V4a/lPAPw3aKvg1X/M103d/93dPP/ETPzErXP6TAsYf+chHZmsAGnDoYlqn3QMpBfzRYoCO67UisCKwGYFVIdiMyxq7InAWgUaPmZ91QHUyKQq9owPyPOVAB2ZagXLwqEc9al757s9zrIK/znWuMx+day5cJ1nnqXPMFTcqCD3jj/G9W3yKx/j+hYal7dvyyB/zytzPl/dOZesZ34mBDoKChX+j9FfVd7/73WdF6tnPfva8JoCC9f73v3/GFLbjaB/e3aNJdBG/dNHoLGHXwIrAisA5CKwKwTlwrDcrAuciUCeyqePXEdXpjO+lONRZGbXaqfBHf/RH81z3W97ylumFL3zhPP/9gAc8YPq6r/u66epXv/p81oE5cvPljbLrPOts3dcx1xnreIVHJ653x/iLCVeWOvox3zGuvL2fU351UjdKACXIdMptbnObeXGmcwLsDLBg06FBTo/88Ic/PI/4w5gfHcI2GoQ/6hVe+udSdr1bEVgRWCKwKgRLRNb7FYEFAnUsRqdZB+qkejZ2TJ4ZqXqXKXv8TrgdCw5Acob+L/7iL87H6BoRP+5xj5tHyDe/+c3nP10yzXClK13prIKgQzc619F2LG9x/LEzHjvsi1EEdvt2aSnoXXkrnwWBzP/XuMY1pssuu2xeCGgK4BnPeMb0sz/7s/MZAawo73vf++ZzHyhPjfT5KQHw5eAd9kvMx/tI2Lu+W68VgRWB3RFYFYLd8VmfnnIE6oDqkDJJpwjk13H1vnvfjJ1bafQs5cDCRPvlmcUdn/yOd7xjnmb4mZ/5melZz3rWbEnwb3xOTbz97W8/m9b9Xa9DkigMzue3s8GfM+mA7WzQGeuU67DPx/ddI3rz+Ub1lBIjexYMeRnhy1dnrwzOAVAei/9ue9vbzov/HvzgB88KDkXnZS972Wz+f/vb3z795m/+5nwapDr/3d/93awgwSJsw2dUCMIZO44Ye5cb43o33/P1WhFYEdgbgVUh2Buj9Y1TjMBOHQ1I6nCW/thJ9ay43fwUiBbIURSYzf/4j/943lv/tre9bbYkPPe5z52e/OQnTz/4gz84/0nPQx7ykMnUw7d+67fO5/Vbo2Bbnl0O17rWtfblLHrkvK9Tt8bByYwUkDvd6U7T5ZdfPt373vee7nvf+04PetCD5oV+8vVvgf4o6DGPecxk9T8FRufP9P9rv/Zr81HBTnxUF5aRLCbqCoslPmP8+Nx749V3/N7r+fisuNVfEVgR2BuBVSHYG6P1jRWBPREYO6HdwrspBOOzZRqjssCs7hwE2x3/9E//dF6b8O53v3v6lV/5lbkj9uc9z3ve86ZnPvOZ8xkJzknYyznU56lPfer0tKc9bV7RbxHki1/84ulVr3rV9IY3vGH+N0hTG+b3ndror6MpKqY9PvjBD85lsfLfFkAdvxG/Mo/1AKL7OvDx2abwnqCvL6wIrAgcKAKrQnCgcK6JnVYENnVoFxO3xLG0Ugz4OaZ1HXCWBQqDA3o4HfT5ur6Vjs49J14emfbLf/R7Vqe/rIf76rKXv+nbNW5FYEXg8BBYFYLDw3ZN+RQhsFfn1vP9QLLbuz3Lz6qgUy7cswvxN5Vvt3S83/OUAPe7Xb2/l79bGuuzFYEVgYNHYFUIDh7TNcUVgYtCYFNHuUywd8ZOeIw7COWg9Jb+bmkvy7nerwisCBwfBFaF4PjQai3pKUNg2RG779IpbzLPb/pmv3HSzPwv7TH98VnvLH3vjGVU1vKu3Ku/IrAicHQRWBWCo0ubtWQrAjsiUEebrzOu0y687Jx3Sqzver80z8eX9m7v75T3Gr8isCJwdBBYFYKjQ4u1JCsC54XAbh3whTwrc9+mVLACLK0FO6Xt++Wz0lz9FYEVgaOPwKoQHH0arSU8ZQjoVPe6xo5307s93/Rsr7i+HZUCioH7npXG8r743XzfrNeKwIrA0UNgVQiOHk3WEp1yBPbbYe7WGe/2bC9495v/Xuns9Pyw098p3zV+RWBFYHcEVoVgd3zWpysCKwIrAisCKwKnAoFVITgVZF4ruSKwIrAisCKwIrA7AqtCsDs+69MVgRWBFYEVgRWBU4HAqhCcCjKvlVwRWBFYEVgRWBHYHYFVIdgdn/XpisCKwIrAisCKwKlAYFUITgWZ10quCKwIrAisCKwI7I7AqhDsjs/6dEVgRWBFYEVgReBUIHAoCkF7oPfylwh7v8NPls+O6/1+91yH1bbrWb47+dsuz0HnV702pbvbs+X73r2Y62K/v5i89/PtEovuR3+ZTs+Kd38pr8ozlqO4gy5X6Y55LfPY6Z3il+8ftftlObvnL6+ejfGb3hufn4ZwuGzComfbxKE885d5H4pC0HGnOnf/n14nrxDC3PLks57573XPT8KlTuoZ+Lv53uNcYRFuYXaQmFSWMY/KsHxWvsWPfs+Omj+WcVNYecPV867x3WVc9/nju4U9K8zvGvMSHi/v9XyM31ZY/mj///7f/ztbdscVK1Nl87z76rXkl+K3VW75yDNX+fLFC6vLQZatdMd8xjqP5enY5+KW347fXcrwWL7KoX7RvXDlL77vRizGuNI66X51XvrhFj4jDt4tfvnd+F7h5TvjvXfGe2FpL9Mf74WX16EoBDIiXLhRsCgkRhKfMMn3Ddf7wt4/zldEUUf12oRH71T/7r1POfLtQWMhvdJd5lteyjG65Xt9752jdimT8i3Lv6RBda383hc31m1MQ7hrfHf5/jIN34z4KceYrme1lzGP8jpsX55hU7ncVy/lc48fKfhhu6zntssuP2VZ4ll9ih+xr34X6kvLt/k7pbOUcWE1Ytq3h03f/aRfWapbmMWXlbvn4sfBXnh4r7qLO+lXeISfOuO7EYMldmEbZnzv5IovzfxlfN/xc6VRGfjcWIbS4y+vQ1EIZKIQ//f//t+5oDFVceIroIqIx1zeq7A9Xxb4uN1XvwhVvSLg+Ly6870XJt45yEv65R/2y3JU3so0lts3nG88P2pX9eNXj+rb/bIOfdN71a34vlvG7/S+9H3jexc/5xvPeqd7ccLbvqqjvMcyKh8lQHuNF8OtuvUtf9tXeVeWcBQvrnj3B+WkmbCXpqu05Z/zXmGYjTKwsu1WvkuBpXooc/QWrqzCYz3Fx7/qJux5da1u267HtvMLs03YwEX74cIoPgifvtuEc8/KI34qvvtNfunxe9534qLdEq9DUwgUokIFiPsAIWAwXgXrXd+NAAgf10ud/s//+T+zMBVW5+7VOzfiAh+4hI1733nnoK4YZMxXnLKh1UgTYWX43//7f58th/veO4r0Ua+EmvAmngqDfO/lokt+8aM/PpMGTDjx7ntXuIbouXLF373D751LgWd5K4fyRdvKp07Kjj/44sd6VZ/iDopP95uO/JWxdqJ80aJ49wflpBk2fPfFhcGIaXh51vvF9d7S32/dD+q98ldGOI18UP3Ew5jDI/hBPfiFpRMGB1W2o5xO9d1EW3FhF73F5eKF3hn9kVfFe3d0pTHSbXwu3Du+l15x5eP58joUhSCQ+DKvoSoAxvnDP/zD6Rd+4Reml7/85dPrX//66b//9/8+feADHzhbYe9V0WWBj9M9Aqg7DP72b/92+o3f+I3ppS996fTc5z73HPdTP/VT8/3znve86ad/+qen5z//+dMrXvGK6Z3vfOf8ne83Ee9CsYg+0lRG6f/d3/3d9Pa3v316yUteMuevLMrB/8mf/MnZ/5Vf+ZXpr/7qr85+41tpHbVLvTQA9YqPqief85xQU+8PfehD0+///u/P9HnHO94xvfnNb55e+9rXzjSAx4te9KLpxS9+8cyvr3rVq6bXvOY10+te97rpTW960/S2t71t+tVf/dXp937v96b3v//904c//OGZZvhc+pWjPN0rE7+yeA+fxPfbxjO84PBzP/dzMw/iUfTHm3jA/cte9rLpN3/zN2fMwtW3o7sU/CBPWKI3LPExmuFb5X7Oc55zlofHtle9xI3h8Z1l2HsweeELXzi3FZi88pWvnN7whjfM+f76r//69N73vnfmqb/+67+escIL6D3iJByGlwKzJY9VFuUiq8jk2r8658in8MIrf/Znf3Z2sLCs01Go17KeB32vjtWbX5texqE/3oQtGfEnf/In0+/8zu9M/+N//I/pLW95y9zuyBZ94s/8zM/M/QTeEsZfZI6+kszB32TO7/7u707ve9/7pj//8z+f5bK0DdySJ9pD7YKvTLWR+uQlHoemEASMAlQwBf2f//N/Tj/xEz8x/bt/9++mr/zKr5zueMc7Tt/1Xd81/ezP/uwMVAJzWdDjeD8yy5/+6Z/ODUmdr3GNa0yf+7mfe9Z9/ud//nTNa15z4l/vetebbnjDG063v/3tpx/6oR+a8UK8g25cY9lgrjN4whOeMN3iFreYrn71q89l+7zP+7yz/g1ucIPpqU996tzxoe34/VGjjbJx8SB/bJA67ne9613TW9/61rnT13Go+0Mf+tDp27/926d73OMeM19+xVd8xXSTm9xkuva1rz1d//rXn7G5zW1uM9PmG77hG6Zv+qZvmv7tv/2304Mf/ODp8Y9//PSMZzxjFqKUOQ33l3/5l6ff/u3fnhVgjfZv/uZv5pGXshiB8ZWt0ZiwRrvtS57aprLe9773ndAaf6J/Ds9+3dd93Vy/D37wg3MRfTc6mG/7itZ8ZSEUH/OYx0xf9EVfNH3O53zO2TamHuqwm9P+9nLa6Rd8wRdM173udWeeuNnNbjbd9ra3nf7lv/yXMy98z/d8z9xuKSEE+S/+4i/OghtmyobmyhlvXgrMNtEoHJXN4OzpT3/69M/+2T+b6R8vfOEXfuHMG9X//ve//0QB+l//63+dlQfxsHSOSt021feg4uI79R1dHS+lEJ7aFl74L//lv8zK1VOe8pTp0Y9+9Nz33fve957556u+6qumL/uyL5vlDDks/OVf/uUzf+kP9JV3u9vdzsqcRz3qUdOTn/zk6dnPfvb0ghe8YOa3//pf/+ssd8i3P/iDP5jzNohDI3JGX5JDqyWNDkUhALbMCJkYA0A6HcJSRT/xEz9x+gf/4B9M//Af/sPpMz7jMyagENC06QoZwAdFvG2no/zqzf+jP/qj6bGPfez0qZ/6qdP/9//9f3PdR/8f/+N/PHHw4D7hEz5hZgxa4V/+5V/OmMBlL7ffOipTDKGMBNZ/+A//Ybryla88fczHfMxcPvThlPPTP/3Tp4c//OHzKBpDRZtotd98t/GeMqkTV+cLQ1YAI3ojn0c+8pFzx66z/+zP/uy53p/0SZ804/6xH/uxZ2mh7lx0+Uf/6B/Nz9DKe+j0yZ/8ybP7tE/7tOmzPuuz5g5DQ77nPe85ff/3f//0zGc+c1Z4r7jiilmA/vEf//Gs/Gqg8UiCVJm3jan8lMVo5cY3vvH0T/7JPznbNtVX3fnXuta1ph/+4R+eBU305/uei5+2QePykG9l4H/kIx+ZHvSgB01ogY+VvXYWP+/mR++d/L7tufTjBTLtUz7lU2Ze+szP/My58/y2b/u2WWgb7f23//bfZgENa3QOr/Ab/eq3Lb+8YWjQRqkiC5b44QN1V9d/8S/+xWzppej4vjYXPbZV9kuZj3qjYw4G+jADgHe/+93Tz//8z88DwYc97GHT5ZdfPrcvChb+vNKVrjTj+PEf//GzLAnbeCt/5DHvkjnwJ6/IHnS62tWuNiuplIp73etek/z+03/6T9N//s//eVZCWBVYnFkm8F/lVf7xOlSFIIEnUyApkFEYbV1l6wAJINqoURYT1KhFY67jeil7DZ9phzDFCOpOWHHChAwMwoPv3mhGh/Jbv/Vbczpw3MvtFytlSyDxMfB3f/d3zx1/ZVOumBLTPeIRj5hNxikE+81r2+/BSP3wEUXAVA0TMoXnsssumwhrglvjCnONbhR+6r2Mg8vYIYzh3uVL8+M+7uPmRlsHQek1ar3rXe86KyPKQ2BoF/DHJ/GL8m/zkp+2+mu/9muzhUq91CMB5V7YyPCJT3ziRKEJY2UW5uKnbZZdXmP+zLEPfOADzyoE8W+04o/8XXxx+/F9U7oj3YuLdyiMhD5lmuL5r//1v56tSL/0S780yzkDpsq+yd8mjuWPnikEyl391GnESr1YjCg5WQiSdaW1zfJfqryqK95nrtfh6nxZwVkb9WvaPjmgE8cTtavaGD+e8az7+CncR398v2/IHTINbeSnr0FDlrKb3vSms+XzWc961myxJMM3tddDUwgSbnwZM5mbH7nlLW85F3hsVCqn8N/yLd8yz13R8n3jWw7ox/GKWdSBQvAjP/IjM4EQPMGzxAEWxSGskaZ5pL/4i784i0WYSv9CMFp+B2uC9Hu/93s/SiGoLOhjVM0UpeFfSpqE68gTY53Ux9oAZjpznjoIVinmXo2yBqdu6MAXV8OKBuOzwuExvrOkpbRKu2d8wuAqV7nK3LEyM5uqoAAr7yhMx3ptK6xzMi9pykrd1KF6qAtsKARMlKZcXEveu5Q8oTxwpNg+4AEPOKsQRC9+rrpFw/yRVjuFw6ZvStN9rjhp9D5hzRJ1oxvdaJZzzLz40zSScoelMBePi9/GNeZnjZfpSp1J9YwXwoVsYsK2rkhH6Ptl2S81Pxw0btWHH72EtR3TAsz1ZPxd7nKXedqXJUCbxw/hFm8U1z18w7q40e/70d/ruXd7RznIP9PzBkgpo0uMDlUhaKTPVwgjTALZ6LeGosDCRlS0GCaOcYFhjSViLCtw1O+Vm6MQsIBc9apXPStoI25EwxQEb5gIM0Gzqljkg4gYUeeRhid8vh10ZQo7GO+kECgj+pjqoBAY1Y4CqzS26cNgLIP6uMdnRrqsAvD6wR/8wXnahXUjS4C64L8E3BJ7mMebwr7z/tKN6UVH3/mmNEq759HVPRMfkx6+qD7nS8eDxBxvwUwbTDipjzIrrzqZQ1Zmo6Au2Cv/UbiUw3zpOGUwYi+sPmhJQEarfPXey/UubLjS7D4/3KSHV9xzRnBMvf/0n/7TudO1zsQACO2VHw9z4RqfbwPf8jS9+R//4388qxBUx7Dkb1IIfF8a/JN0jfWKTmQw68h73vOeeZHpN37jN86jcTSOD/jRvrh4o2fhunxv5MXlt97tuWelwS8dfnkI60usEaL4a++brkNTCAIQQwPN6nqjNA1KIROoY8UIbgtVCKbWEpTOcWUw5eZ2UwgiYp1PBIUV4WVhmxEFYZdSgCkxZJ1IOG0i8jKuMhWPRnspBJssBNLZ9qXeXHUgPGHCCbOkWLhjTYoFYqMwxnc1ogQ7rMfGJOwZXqTh06p1hNe5znXm0bMRtLC0TT1QcDelIU468bm8x8ZptJj5vfqMdds2rvAz2rv5zW9+to1W3jA5DgrBcg1BtI0eaIIHDEDQmIJOUHLCLDi7Oe2gNSNoD6PyGH35hZ/8KCD8kVdMIVFejCzNw2vL2iI+4Ne2t8kL8t6kEIx1Ez7pCkHyFB6u7tGE3CVrWCFNsxnoajcwwV8j3dE73lvS3/0Y51tpNM3IQpOL7/DtyENLunQv3Xi99w1CTGNQCJrOX/LWoSkEgQg4W7KsiNTggMXp6AIu0MQxkZtf1UGVBqJcis5nCdaF3Ndx7aUQIGREjIB8cQQUM6j5utHEiKjwLY/9YtT71ec4KQSVHU9wyg4DjRTP2LpjJa4ONx7TMAhkTnhsKHiQRo83df6mtMzzw5tFxLqPJz3pSfMOCyuvObstLBC1ovw+97nPZGRgtbnvNTqNt7yjZWVIQTGv9+M//uPzVJo6KD+3XxpGu4PyUwjUQ1lrp2P5j4NCsJOFQH1gr26EKtO9RZ92iDzkIQ+Zp8v+/b//9/O9uJ2c6af73e9+80jL9+bRWVUsuMRzRv/y0J7xGz6AYTjyPdeulYOlwNod64QyveOBVSE4KM6+8HSSNVIQrh9CG1NTFDn8oF1kFYjW6DvKAPF4EO05z3T2Bh2m4r70S790uvOd7zwPZCxE/Y7v+I45bemTRTpyO5pMq+M5/aSdLmSONXkGJxTV+E1e8VxKAv78zu/8ztlaf0kUAgBicjsLbMuxOlJBgVWBAzCwCFQL6SgRCf0IceGkvXRfxlS7KQRhkA+L8ME8BAehoyOSjo4jgdGoQj77vSpT70vruFgIapjKXD3gwTLg/ADzdxi/RofXapw1UNgKa8gUANsHrao2p2+/r+1BBDQetMDKiMlCOqZyDg3Emz4xQvC+PdkUWXPsBDylxLZFHY9GS+vXIclbA6UQ/OiP/ujG6bHosk3/pCsE2lZtyijs7ne/+7w2x0Jn+8HRm0PTnPUyhfnuOXP/vqOg20NuJ5BdBNonQW6lt22qTVWVN7orA34srt1ElEM8RrnltOvk3/m07YvlGXmuFoIzKCZf3MEli40+zcJBi5QpgpQB8gZtOe28th6d0dx7ZAFZ/rVf+7XT933f982LD62tIz/sgDKFZASPv/AZfsOXtneynFuQ6gwfuxcMfsgc1mMDF8qDfhb/URjsGGLNpCwoj0GPAYzdRBSCTXx1qBYCjG07m5GWve2BNjaIGmkNhaD++q//+rmhmWqoYWwq/MUy/za+j6l2UwjCAPNw8EHAwnwdim0rBNBoJYhRdZD7vSpT7x9HhUC9qwfTnYZkrYW1DvDCazDET8Li4CxMCFMamPos2NTQdPRGlxo7vh35rXzgtQzDjkKigTH72lpr/68GTUGhZFAQbne72827RtCRgqc9UB4I3xS80h7zjkaH7Z90hUBnjAdqSzpuQhb2eIlDy8I7+d7BH57zo30HXFEiHW5F2XPmCH7Ecxz+q60rj3YunlWBEMcvpjykWecjn23yg/xWheBMaxvbI7qjCZo7eMpami/+4i8+S9txsEHuJL/R1zPt3o4DSoSFznjE4k3rnfRz5Ae6Sz8+HPNHl/LXVr3vO+ccGAxZd2dbNSWCQoGXHKDlrAPnqsibJYJ1y9RgU/JLuXKoCoFMjZ6MwJgzapRjw9BAl/HMJ/ZuUyZqfNtsFEuQLuY+ou6mENRZ0SB1VgRFGKU8YSzz1hjRSAKDxDh8br8YVabq5dvjZCFQ/rGB2MFCS2ZC0/g0RnjBtcYJT3xmCxCF0/YbnTbTn8YlPW4TNngwAb18XlmK58PT+/gfrk4UY17UQFm/bn3rW89zjkaFFJHelw8njW1fJ10hQH88oT3ppCkEFjqnEIz02y1cu/NO4ZFv0BLdCWjWpn/zb/7NPOWHF2vLwspSefAoa5U1JZRJaUuHK+1t8YP8VoXgDNrRQVuujeqAnV5KhpgSSnaj4agURFvPWREcxOe0RzynA8d30RfmSzrHX5ueKZ3no/NeZSRDDGzIHpZMco78YVFghTBoKf8lXx2aQqCAtlTRlJlIgDd2/HV6+T1zb9rA/JyRm4otwVpW4ijfR7TdFAJ1N2rUoTExU57ggKkwWcKDwsAU7ZhUIwmExwTlsV8clu9L4zgqBJgafzCjMZfhsfhJB5BiICwerkxqjp0l9LIGxF/hkl8D4/cO3/0Y5/2eF9bBcmjEZ9WhuDBP096dYkdTp5B4Xpp8aWz7UgblOalrCBLcfApBc6kpYPvFHJ11EPzc+K2w53gLbS1wNe9rXUkdiPaOJ5VF2xbPSkDmmYaQBj6obNvkBXVaFYIziEeHOk/0MKq3w4Z6rAAAIABJREFUPZuFEf3iq2Q1mUOWc2SOs2S8z8xPScQXKRjxD3/kIbm73/S8Mi3lRO+Ll76y5gx4yB/8WL/hHW6Z76EpBCrOJOfUJIsngDMK6xqBhlBDqYHoBGlVBDchuqz8NhvIxeYFcG4vhYCQMq9k4QgLic4rRSDs+OaEfuAHfmA2W2FURD9ffCpTdfP9cVIIaigYGqOzDlgLQNBqkCkAKVPurQhnwnUOO61ZI/G9uufCJV8+PavReraMg2Nl8ly4xujdngmL1zY0TGUX1hkrS3lEl236J10haMBBxjDfZiGo/cB+P1f0X9Iquudrm5x271hZbZr1r04kX5tuZOm4WgpEHRB+kd42L/VaFYIzHTL8RxlhSpDCZtFxg7ZkDZ9DS/0Z35w9Prviiivmtp4skGbtHd6b6IzuS4cPxJWOb3O9233viBc31sO955vyPW+FoIxjUvddPeOzDlhoQ1CnLengNACNgenW+cxGJBpowHpHmBJh7pW5g7Aq7U15jWXo+VHxK/deCgHmYV60it1WJPM9cEhw8OvwrDL15zoYlEBDbPkgdPntVv/lOxjjuCoEtG6rwylUMNIQU6CE09zb923PMGUggV3jHBvQiI9wz5aYLt8b73tX3NgApRW9er8GK174UlynRSHQpsgbc6mtIdiJvnvRAf26ovPYBvEZhc+8rpXi8sWjyrCpbVtwRmGlLF4qPpDvqhCc6XjJVnJCuxQmI/3JmcXCBhg6fnQkY5LP9V+UP+tCXv3qV88j89p67T8+4cd/vbOXvxPPFc+Xbq7yl+eY3/iN8EUpBAou8SpQ5YDnX9Fsy2L+DyTgpRD4AxWdn07fgoeEd8ACW7w/PTJvI48EZvlUwfxl5Y7CfdjsRyFgHdDRY7qv+ZqvOQc3uORMLdgqZXHLqCyFjzx3uypT76DhcVEIKrM6mKs1rcQKZeU4hSn+wmspB56Z8zOHZhFPPFta2/KVGa/u5bZVnjGf06AQ4A8uhcAOEbJqr/Yy4rTfsDRTOp3syIplEJQiUFm0aTzr3s4TOxWsndKWL8WFN1eF4AzysECHlAIy0oFNFhOO/RWacmgYfU0RWTdg/RA5dRg8tht/7EfWbCrTeSsEClFCO2XKFEr4WjvAhNuIrQ7NISCEuLlfWxItOjR1EKjeE6Zl2U4BVITReBPmiCWccK1Mu4F0KZ4pF7eXQkBYOEzHXFOHXRAQo/YJF0xHO4Ut7MwLjTjAozx3qu/yue+Po0JgZbftN9YFWF8R3+CdlFBxOgD8ZmWvlbmX8gr73fxLUb5VITg41NFWm8ppWwY2FgWnsI68WrvW3h19q0P27aW4yI9VITiD/NhG4WL62iCXJWeUL9GSz3lmkajjnymDl0K5G8u+W3jJYxesEIwdT4wvY/EWXji4xf5HAKUQ1OE7sdAK67ZKOLSod3s/cCkL5tUIfwrBmK+wvOV7VK+IsZdC4PAhi4p0WhjPCmVz3p2GtuzkKBC2sFAemCXhAI8Rn50wqUw99+1xUgjiM1MmFuf51zXTUngGTmHlngJFWzeXx2rFjLusfzicZn9VCA6O+vir9shnlbLP3MmEOgs8mZxLJopzSM3jHve4eReR7+JT/rYu8mNVCM6gPeKPHvorMjeFIPkyyh10ZD1wcqGdcuRqMnlbNLyYfC5IIVDBGB5oNKAqrdO2tcGpS0ZtMT/QOA3CqlsjYZ28EZt9mVkTNBAKRA2FVs1MY6td+ZRX5dhmgzlfsGOq/SgE/g3NgRcsLKYDCAdCJNM3a0uL5nSAdiTYytbWNXiEzW6YVKbqgpbHRSGo7OpJIXCOgLm65vPwDT5rJIb/KATmcK3wZ77L0lT9V3+ap55O8i4DfJDb1pSBdoXXbDN74xvfOLfl+DJ5yK9cVq47m6KF1GN73haPynNVCM6gTdbAI+s0a6yBrkOnyOGRdsLJZvJaf2aayHqQ+q1t0fBi8rlghUAlMXyg8cXZ4+gwFufvAwaz18FTBuwe0NHpIH3PEUT+hckoOVC9S7ibNvjmb/7meaUmYY5AfZcv76N6KRu3m0KAmYz4LSqkKFkzQSkQdhgRAQZH76UwwcfcuGMuHVZknks++xEilSnM4HgcFQIKJVOs9RYUJNhwCVhhmFlwaBGZE7/aXQCn9fp7BFYLwd9jcVAhygCZSCFg5TS4wZNknPaLN+NVviNo/bmbtq9N+lZb3ealXawKwbmIowNakssGYE4BzCIZDfnRVNj0jzNjHHYG023T8dwa7P/ughSCZcdTB0NAOzHOaMxJbIDhNABKARBtrbPykuZUOkb//j/aYjkjvcDVeIDM/PKUpzxl3rmAOHV6+UcZ7LDZTSEgDCgE3/qt3zq99a1vPbt7wMgfU43KVQIlxQlmFiIxZxEi+8GkMsUmx0khUOb4hnXJsbEWDLaGAO8kZFMIKE62CllvQNjuB6OwOS3+qhAcPKW1Kx2Jtm+K1E4iPGmgVOcx8qp2bl0QpXVVCA6eHheaIlpw5M2b3vSm+W+fTeWiXX2ccPJG2LHVpintatK2jnIfNeJy3grBsjNJOANMp0SDYi6xSBBYFAHMzweSOZjmchXEdzQvQFscNn4HYI7lwOjZKU/my8tzWZaxYkclXBn3oxCYMmgqRadFwTL9wgrA7B2ejTBgo7MzBWOOsrUE5bkTBsvnaHBcLATqpPzwYTFyEua/+lf/al5rsWyUNVZKpumVJzzhCfP/E2RNkc56nUFgVQgOlhPwJ/7CoyyglH171/EkeTgqBLVjfKz9j4OebfOocq8WgjO8AHsOJpw2YgupQ60od8kXPtkzOpZt2xNtvbcF3/fH4TovhSBwRiYV1qEQsv4AxH/Q6/gx+agJsw44eMN0gm01vik9WrQzwP2rXFp0IEuHNmaBHbPbuKq+NMbyHDXQlY3bSSFIQGQh0MFRBHyjfkxOtmd+yZd8yaxUGQkTJpQC+FK0rGh1ZjVc99PZVaawks9xUwjUIZ4zHdC0Cn6JdzTQrFN4yLoWizUt8tJApbFeZxBYFYKD5YQ6EesBHLDWWiD8qc3y41Xt2Yl22jAZGl/yk3EHW7qdU1PuVSE4gw/8R5c8Nq1zm9vc5qxSR95Ey+iKxs7S8a+Z/kzouFgJzkshAFMAYZyYVVgnZg+9+VydFmASxgSzeVzb6qyi965vYngasXk25y2bHjCi803gajAO6rH33sIwHYFvyn9n9r70T8JrJ4VAPTFPawhGhcC3Rv322vvjHp1ec+Uw4TCjkYe/4HWkcSbx5i/LP6y653d5dlwUgsqPfzQyCpOtqVZow5KSNDZOvJhFxRwt5SHFEkbqLq0u6YtrlObe8/i193bzKyN/eY3PNj1fvr+t+5OuECS08QZZZJTn0LPaSfTNX9Kp+3gj2hXfPXoJe8/gxRSALa8GSdq5NptcrA1r0w5oe+lLX3r2EJt4Tjpj2ofND/JdFYIzKEdH/Q06wAa/sHBb6O6wMzQkd/BX9OW79+yGN7zhrOj5wyGyObkirS75RO+lvxPt40Pv9/1O75bPfvwLVggqkEIACROZ79ZpAUTDSzi7N4q1x9a8uPd9x0mHY1pz3oD/fU64pxDwjfD8KYxOr4UagXcQQOwHrAt5p3ruphBgqNFC0F553xLURv7+5pKyRHgkSODKwdliTX+nydIyLpyDEXxjHHWoTNXH8+OoEGhc+Mbfh1pHAAvClkKZJWXEStiWIQs1rbugnPozGXWneI2KZrwVbmGW3/P4t/j9+OF+lPyTrBCMyoBwCgHBnkKAjvuhHbr3Lr/vi4ej9VH+eU6bNZ2nbeM9vBl/arPitGfHkT/84Q+fFRRtV1p1HMq0zUveq0JwBvFoihajM8V9xRVXzCfKGmSgJdlD7qCp/ipZZOqAdddpqvgBzxn8JqNLFy/JbxMPKs0y3vvxYfzS/cXwy0UpBBWAMDW6N8+vc+PqqDRAwvlOd7rTPDIjwGNyFQkEadGon//858/HHftubMgaEivB4x//+LmxScO3viuNiwHisL6NkHspBNZJmGdcHp6jbvClYRIa1hKkaGE8uMAaxre61a3mBZvmrKINH9OF+chc1dk7x0UhqMzhqhO3e8BUlQOvErgaIlxqmBpqfEm5pHRa9OPPtygUzii3AIjyRZPXYAn3UeCjxejglhv5UVxX8SP+PTtK/klXCPABeYIHDFpYirQpbUvdc/hpL9e7eIQ8kwaeMdhxHPJrX/va+Z8LHTHOMjAqA4Xznb+S5bQji/FYfLdtvpH3qhCcaZm1dTTQpvEFugiTsQanZIjBGHlD9uQoBxwZTV6bPrjtbW87OXPHVmnyhtJoVx7ewUfJnPhrLz6sPCkV+RfDM+etEIBKhjmg6Uws2DJPpsGNnbkwDdnfvrIAALNvhbmABwgNymFEQEyA15hp0+aBrcRHmL7jXwwIhymYq+t+FIIEAwtB3+UTFvYy9ycpsOHSRgkYHaKjoB1WhFngEsYj7qVZvT07LgpBZc9Xdg3KDgLbU3X2eA7PpDBppMJhVscgTkO24JAyxgzoL0o1dLtlKBr+CImialSg0W5SrsLZs1GQV8b88N7N9+6luAihk3oOAXqjNZ+zcJmVyIIv8sY05Lve9a55wRh/N2dRGb4w3aDzNz9smo8S8LSnPW3uICjm45/fkGU6B200WYYXyUULifFb/0tSO9V+0QRvbfOS36oQ/D3i8MihjbA2qq2zVOvYDUbQXP+EvikFeM49usd7eIG13AJ68sYx9RbU4yFTw2S3xfP4C6/hTf0mZ8BSWLz1JpQKsnss48XIkPNWCBJufIXQiWsYVsgapap4TF8YAA4f0qlh9NIIXD6wOcLX4kJbcOrwAhPQTL62KHZ4R2n9PQmPVqjy7aYQqB8LAeGQhcB3IwPCjXkb813vetc7B2d4J3As3PTvapgkTPkJl8rD7/L8uCgEMX748DVOozP11jCNADXCOoEa5siX4zMNmeWFQsVyQOOnePmraUeVml7wpzP9n7hOREN0LCnzH2GeohC+7jnYFsff7eq93d45rGcnWSFIEeTjAUKZmd40EyXcf4iwbgpvcpTF4oWtCTBosYX6xje+8SzgnTHgYCEWgaxTeCyXDOOTk6b/TPFR8i1yhT9lMoUSn8dDe/HNQfKEfFeF4AyicK9v4tc+hTn0MRihQFo4agGhP/NLGcRvI90L4z/vkDemHPRp+NGJq3e/+92ne9zjHvOptfGm/0S4733vOztT6qxb4uw+YzW2di/Le2W8UJ44L4VAZgRcIGFeIyc7ByyKUeGEb76OToOjAcXwfc+vAoUtONRIzL1JIxAJeAqB+T+g0MwbBUvjqF7VbzeFQD03KQThFO7NXX3DN3zDPMqpg/M9fDCgXRoYpn9yK40Rq8oUZsdJIVD26qRBCnMUU+sn7Pe2sJVgxi/4p07A/chT8dbS9w4FywjO6m+N1Z9xXXbZZXMnojGyeJluoOjauUCRo7HbektIMCOPmFfOsN/Njy7b9E+LQqCd4AdKIB5hsieY+drOfhy+YAJukW/tEB/hHU5cfMRqRUkg/CnsrBPPeMYz5tGgUSY+iZeTkfG5eOFtXfh0VQjOoL1ss+5HBV+Y3DEgYPpnVbQjzIJVMsjaAbxCASRP8ETK6VLmeMZyhSf1Bb6LN/GnPwnMp3i69w7rpgG0vkH5XPwL5ZkLVggwLtO2Q4V0QAo3NgiNgSZkGuE5z3nO/F4F5dcAloKRYGIasQXHqA1QnLT4hDrl4yUveclscUCUo3xVv/NRCHQmrr7lqyfBYVRqVT1mi6lgLYzZ4GN0m5XAN2gV9mOa4Sbt42IhUGblVSc+p26cuuJHCupd7nKXeeRGEGct4BcOMz6+4i8bq/t4OnzxoY5A40xZ8K+cLBMPfOAD5+NK7SV39LR5RgqusuL3sayVeTe6RJ9t+KdBIUDDkQeiaX70P1/f9/GR9odHdADywivWPv3zf/7P51Ed3mQOZlmCOZ7V3pf80H3tdRs8IA/5rgrBGbSjQbjUhqOJ9ox+3hNGRxZuAxPTAI45diCac3l04vghXht9vDPKn/PhP0rDYx7zmLNb1ZVNefgXcp23QhBIANCJOBDHGQEOyKli+cwizCDO56c8jN/6XqFHkANWuhZ63f72t5/nhFMKEtAEsS2ITDU0tAh0IQAc9jeVbTeFQL1oheOiwr6rfGEDR8zGrETwhLU0Upgcm8kEyiozTtOE/zLtaPm93/u988gnhoxp5UE5e+QjHzljjmbLNCrnYfvyVd74J1/dlEsDNZ3kOGcLeJjwNJqx01eveKo6xls9I9i9456DQZ1J34oTFq8DoCT4a1TKAfrQ3NHK9AINXtmUVznje/fKHp78S3GdBoUgvo5+I+2jf+1pN790+Eu+iF/iGe3aYrKHPexh85qFlAGdB9mFJ1Ju0UAYD/Ddxxvb4gn5rQrBuWijx0iH7rXd6FQYTVl9DAhYulkM7n//+89T4PFdPv4RJmvw0chXwvFSvOhdYfEpF2SOvwKQrzKO5Ty3Fvu7O2+FABhVnqCzMMKcNoFYwfkKTyvyHwUWQMT0GsDYoRRfunyNhcnbqYY6okCokVE0NDJzJ8yze4EgzUt1yZvbSyFgYdGJt4Yg4iq3793DHXb+TdK8NisB3OEyMpA4ShOzpEVxMPa9b8NqxES6x8VCEA7hmi8eb5lLI0h1wCxNFEvKIxMeaxVTL0UKZjWwGqL74kZe7nn8Fz8WzxenkUqbVcLUlnllJuIHPehB8x5zi4QoaBovmqBHNIkul4pPT7pCMNIuxS76eZYrbjffu573zejjn5RJpmLTBWSYeWJTTuaFdRIWo5leouAnT/kcXojP3Y9t9bD5Q76rQnAG5WRLfm2UP7ZdYdMGcPulX/ql2SJu94GTCsloU0X6rGRKciYech9P7cV3vecb75ri0geTKZXpYvhlXwpBgIw+AK644orJ1hrCTwFraAqt8kZmGoBRElMKITgqADG9dANZWMUsEuv/DTQwlU8Qy0cH6p/BdI7e7yot6blKr/ve25Yvf24vhcBIgkKAoQiJvqsOYaWuzNDmq1gUmlaJkcJep2SBCguO932XYlCaYUDoHBeFYIlL9/BRvxRO9RW2YMvcvlXgtqzaiWBBl0NFaqj4C25hF58Vx4dvDZnfOyPu4/ullXJGIWGBoaAwKaKJTlg5lZ2rLtFlm/5JVwiiF1onp9BGp209gTAnvJvzvrblHcqftKQ98oF7PDI+FydvcouSaI3Uj/3Yj83tGI/i3eifP/LFtnhBnqtCcAZtWKSQCWurKWx892Q1vOxy+qEf+qGZrv78yGAY/eM78mCUG8mUZEb8EQ9SJE03WVNgEKN/yLkn9z0zGH/iE584KwTKVP96ofxyXgpBoGDYRql2ECRQ+YVVVOOxIMsaA6fD2eNdgQM25ndPKBVPYDrH38p7wGhwpS2sUd7nPveZ3vzmN89ECQDpjYR0X5q9s02/+l2IQlA5q0Odh/owiztCk3DBRBgKLjEg5jN1YL2BDgjufS9daXZJ77goBJU5Xz2it3osnTpTDPCTEZnFqK985SvnUZo5/6/+6q+eLQcamGkvPJsghyGB7164Bg3jXB0B37t4tGfCfeu5hUB3vOMd5wO8WMBYC9Cl8ivrSJfquA3/pCsE0Qlt0MlgxSlyX/ZlXzYriNYlaUummHZz1gIQ+JRKoz/rA5htySj8Qy5pj2gfzwhzdQLKohx2KPgjOEqiRWnxAn4Y2/w2eULeq0JwpsXBHU2iS/JTW+FYIQ3MHMhnrQArEN5C52SBMFqPskMYP1AqdfztODBIsf4L/zka2S4W2xPtdjK44yxIdSqtheV8lgj8U9+prGTghV77UghKHEAJLSPZe97znme3WNTQABEAVZwFQcUsqLF1zpSAQgewdBOKfPGEuE6P9sP0ClggSluDEva/1FaVUzRGEEpDnLD0uUtxlffFKgQwGRmTadwaCltdxgWd4Q8jYVurMAzMR7xHPOB0nBWCMEbrXHHqHB/wmdZ0xBZnMuFbZ2HqyYFYTG+sNE7EvPa1rz3zHaWKWY42TuDr4BPsNfYaf9iLx/s6Bu/j2eIoHNJ2XoTzNJryqpwjXbbJryddIYhW2gUhnDyy1gQPEOycKbudHJnnXWuiDFb4HAuow2bsOkFXApxsoijICy9w8s7hCTIMX1kr5U/hTO+hQ7yLl/HsNnlCnqtCcKblwT2FAB20UXF8FmyDXDvebFPWuaMxuuaWcsG9gYetzdYa2ar/iEc8YraE+xt3aw7IBDxlSsnBWQYOnPMJDGY48XiVz/qp/4tX+BfDL+coBPtJCDCEmO1W5mQTdnyAqHTA5IvD+LQeZhUVtvACsFUksN1TBhBCp+evki1MJEiX6YuzYAMwNaTSU5fAGcPbFLLykjd3sQpB9YITbPg0VLsJrKcIH0IG3gQgp0NjqmbRSYsMl7BA0+OqEFSHEeuR3uGvznCLt4QpB6a+mGxZD1hSNDjmP7tYnv3sZ88KqS2GrAk0dPPAGjQlzKhQp19ngz/hzwnH/9Ei/vXcGg/Hmep8tCflqqxjnbYVPg0KQe3CiMwebtiTQ6xHTL+U5v0473Popg1SMLUfHSklneLgmFrCXmePV+IJ/KIcyUsKI9moDVtbgAe1Rw6P4tttXvJbFYIziGuP5GwyVxvlDFTR1yF5lD40RV805S/pS1lAY0qi8wSe8pSnzP9xgf+sr6Nc4B+8FC/q+8in0YkrHr8Ka7f1B8oZ71wo35y3QiBTJ3VZ8KeShB2tNwbnj2HPE5TMaaYQCEKnc9mWVYUS1BGgijkExgEeRmnSBXbgy/ervuqrZuVE4/RN3ydc8z27UJAupkGW/8UqBNJR/oivPsJOtdJhMUfXCcWQ8KIowIiVgOCCj3Sk1yWtk6AQVB91i97hr87qHn5jvHc9y8eL7S0mHGnhFAXrMSjCGjTMWROYkFmwCH0WhIRDSsDYFuJfz/Dwda973bNn2Gc1U4aRNtXpsP3ToBBoH7CnyJnGXJ7oWbuIN/by46doFo/B0rZCfEOxtC9dZ0D+UQC0z+SiMtVO7dbS0bTeqrZ62LQf01eHVSE4gwj6kxfkAVronI3GWYOY67P+aMv1SfV1yWBnC5haYtp3kqUtyfoCHb908Q7Mz5f3lrwpndF5fiHXOQrBbglUAIILIObbAgFzY2ouRgfIaC51732duM6LucTRoTRi2g7gNSQOOF1Gb4QwM2uNhy89adHQrOKmZSHapkaq7AFeutvyw+1iFYKYZmQgYVqlzp4w0flHBz6cOFYCmqlV9/CtTGEgnZOkEKhXdRz96isOnmHJj3eEc97r8n4WBcKe0HTUr9MLNXRC33y0zgbmYzvA9wmIZTxzo3M6TGFoA/Ie8y3/w/bxxUk9upic4GDPRyPtgZJXexhpPvLMMhzfeF94fO6+DkSYwyumGUxHWW+FD+KBylPZlMs0LLMxOVsa2+QHea4KwZnWBnedNh5BbzTxnz2mhEyDo5+2Pbb3Ue7q/2xB9qd+eI2iZ1Qfr5E5wvKJ1vnxl/uRx3q3uN4vvu8uVF7sqRCUMR84TM+Oz7361a9+jgIQkwPKMyMmgIgPpDorIJpLsS3DfyCYL2G6Uxl5jJV0r0EZjbESBL6GJSwP6VhcyEqQQqBhjuko/6W4wu9iFQLYqJP01Es9+fBhRbF4UOcS5uEOcyNXpm5/r9p804iHtE+SQhDmO/lwU+cwDE9x4TzyTw2Xn/OcgkCZ1dBZahxfynKGH9t5Ex3waw6NChtBmIowTSGtS3WddIUgOvBTCJwdj4b4JNrjhZ34Rny8s3yv+PjDPUylzzJnHti0k0WIFIBkYvLMPb6gNOhADJR0HvLc5qXcq0JwZkCRjCBjKQPWv1kjYroPrTj041gGu4/HTHVT9g3E0JLM4PAInLmRXzbdj/SP//p2vC9c2hfKM7sqBGVSY9HhElwW5KQhqTxACDhzJRZLGC099KEPnW53u9ud3fedMuBdYe9rmFbaWhjXLgQNKKFc5Sghz3rWs2azG+DLU1rCGpFToRAM8fq+8o/+hQJ1od/JmzsIhQAeLgyBsaKLzpzmGl0accAmQWNVddsaMed4See4KwThnA+jwuoqPDaknvHjF37v9L04uPd+9/GmezwHU1NgRgIWz7KAUYwpv+iA34VzeDehwspFMXbKovQuxXXSFQLtAPZ8cqfjvbWjaB6Nz9f3fXyR0BeHL+oAWPJMOdllMvIEvhj5g1y1uvz1r3/9bP2LD7fFE/JbFYIz8kIbR1fOQOoVr3jFvOC4qQK0qx3r+6IlS60BmAXv4yJ62C5d/FI+8Uv3S/rjTXHe61n8OqYt7kKujQrBMgOFUwCg2DtLgBFmdTh1OpjZkbGY2b8yMfUzr9CoAgxo3u9bjUNn5Q9DTCFgRtpYjUklzbdYqGOBjsbs+5zOj7XBnI7FipQW34xCXH0S4BcC0sV8E5YXqxCUjrKM9RGGlRXKVjmzEmDSlIKwhrs9qzRWC+h8F0Ohr1GuP/Kxx7Vv0UhYGjA+CicVbqJF2Ix+OIlbXmPdx2+Kr2F1Dx9h1/isb/EWGniPTzEwleCcCOsLYFjnD1MuZRa2nvu/D6biSzEqVK/ToBAYTMCdnDJocWpgAri2EE138+Mn72zih74tTT4eoXSzrrZrKl7AA/iDr53ab24ayuI15ZPeti5lXRWCM2hHX+3aYlHy0dkldfx4Sf9Vn8YXZ0rcQm5r7bSrZd8D42TKyCvxyzKu+HjA8+SNsKs0R7/3z8f/KIVABhW2xMURVEz7GhITdIKMn4BzGIM9mTqnTGVXXHHFbCqzgKoGADSuRiANjcDiN4cRMbH4vsbKx6SO/7QoERF8X3oauvPkbR3T2VVuhBgBK3w+AF3su/LkDkIhUJbSU8fC8DHlwmxtfyr66GRgFH1gJd7BPLZM+YaTDpx0YqNC0LfHQSG4EBqF3aZvl8/c73Z5Hj28p/2ghxEhS8FIA3iF69T0AAAgAElEQVSiBX8MW5zICpZCWxn2ynu3cp3Ps5OuEIxYG1TYLmZ3kjYQ1ueD117vxhPxhXsDG9vL7nSnO53lCbxRR4IvhLVTVlPWJoJ/m5fyrgrBuYjri2wttU6rzn9s07VncawHDuszuG0dyKY2vIxb3p9bgo++8/74Tfej/9Ff7R1zjkIgMcIshcB9DO3gDAfh2KOtI6+B1XEwk1hUZU+3FdoYmXAzf4axacaUAittsxYAktOhawTAZP43T8Mi4HudlfJIxxbE5eI5yoHvKSPm6DTyvqkeYBBWl21fEeigFIKx/NJ2qReBThmyAt6hKegT0/JzDr9wwqNFmGgEKw594W7nSLQdGf0oWwhGTC51OHrD1tHeTkekrGoz8Tt8w7iwuWV/UmIRWm2utLZRp9OgEIT1JoXgMDBGxxxawpgViOWoAY12mQzFH+7JR3+vzNKqU9nmpbyrQnAGcTSDh77HQvpxm31tGb3iK2EDW3JUP6TPIVulc1yujQoBEFSiCtGimdes5ldhFY95C5tGsKCKaQXjA8J3fJqxhW/O1qcdW/WedUBj0Klz0hJPOGoQtGnrBzQKFgrbeJxOaMGid7MU0NooGnY+tL1O+UdXnbZNmMpwEAqBtMartPnqByMrxf097zi1ksCBmUVsDiuyFoTCFY2WCsHYYfluVQhG5D86vKQFvidIbK81bUbZHTEVhisnjF7al2m5FNnS/OjcDj5mVQgOFtNop10meyiJtjr6f5cUgvxRnpJrLEYsngZX27yUdVUIziAeDU31PPe5z537pdpsCgFf+60969tYyWHoe3IApsfl+iiFIOZVGZ0FQaHjoCHd4Q53OFv5kYEx9U1ucpOZgY1wfJcyoRFIUzpGsBYP2lpjwZVOXGcuLWkUTkAyvZjzdqKcRTnMsM985jPnBRu+YZXoG9+zEhhlWb+g/Mow1kfcti95coehEKhbrnxs02TJIVAIFvgkdChbwubBwinlzZRBZ0vE4DH7cVEIwoC/7Wukg3Btxzwi86/DcMKVP7Yf93jZyJEg8e2267IqBAfHMWiHB0YaCsOYLPNnW7XJFMJkoHvPWEqtCaJUbvNS7lUhOIN49DNYckiZo4nRhkwd6VbYM/2adXa2EccHMD0u164KgQ7VqJN5ufl7witmTqgZPRqVGp2mDPi2MGDcUw4wuMV/P/ADPzDd4AY3mDutpYCUbg3EqN90g/ULlAJHNvp/g8oRgfgUDKNf0xajhUI5LhVRYqqDUAiWTBXDwZZTR3W1lsCiFp0MZg3PGJmVwA4Qq2bRw7dLhaBv4CyNo24hCOf8JVaHfV+++WihAzBtgH8tZIvPYRtdxHHMxNZ32G6mnZQOfxvXqhAcHMpoVnssVXHmoikEDlojr0Z+GHkCbxhp2n5ogLXNC9+uCsG5iFMIrO9JIcgyHf3QSxhNLaD3T7T6TDSHJ3dcro9SCOpIqwjrgHMA/FubDqaKjyAw8VsVO4JQJ1XjqIFkStUwbMtwZCdhqbMCdKPYwJanrYy2CZlCoBAQsKwBCKAcXA2Khub/D6zQzTqRYnIpiKL+3EEoBDEYv6v00avnTFwsOrDV+cMGVvzCMKeUmYYhqJa7DFIe0AG+R1khCIPqz78UV/njdWH8Z8rLGRHwi6fhGT3Ecfic5Yx1a1UILox62gAroqmX8A7f0d/GGgL0jx9qm+jKYmTxLvor0yi/tE1xnul8rD/RGW3zUtZVIfh7xNFwtBBELz5aJVOTq441t46rvrB+7+9TPNqhjQpBHanO295opismrBg2gYZxdTj21pqTNt+FoThA6IilkYCsgbi3LsBoyJ962HLYYQ+ZuQNYHhYNWjfgH6WU5VGPetS8I0GnFUFq8EyzLAisEDo6ZVEG/qW4EgwHqRCMdSn9fM/UW0evw7fFCYYcukVD9/Y7O0yH8oTpWRXadnhcFILqzVf33KWiNd7Gb8pj1I3HH/3oR5+1EEQD+EcLvGuNgfP17dDRbsZ6baMuq4XgYFGOH/FD8o9cNaAxuIn++CGeSIZ5ZvEvWUdR3+al/awKwd8jjo4GWNZz6AOX9Kr/EY9uDs9zrLkBLyy1Zf5xuc5RCBR8ZGCdtmkAHfFS41Z5HbUjhc1Hv/e9750rnzCTjgbQ/Sjg5ENochjelg6dEUuDkVLWAj4nL45m769Hnezmb2spD2NjQhxxVoOa82HdUA751Ci3TZjqfVAKQenlw5Ib79VV3V/72tfOypqpFDjVycfEOn/bSJ2iZs5rVAhifEJK+KhaCKo3P/7lb/uqHJUBDbQfi2n9dwdFNdxhip/dw9a95xabmbqJV0tzG3U57QoBrA/ykl5yp/aJH+wcIL/QHQ/w8UHKgLB26m9wmamP8hoCa7z0D+oVr/Kr70HieanSUh9T1azTprjri2q3I908045tNbaYuP6v9nyp6nA++Z6jEERMBOUIJ8fdMtmb44xxE2Q6GmZplTfXpeIaQQwhvS7h7vnepSzw7UIw781EZsucLYjA1bnLi6vxiNM5sRhQSMRHFETiPLOQq/MM5MFtKlflOyy/el+IQjDitQyXbrTquXoIY0bz185Qt4gQRrAjbMIUVujHSuNErVEhCG/fee+oKQTVf6SrcPx3MfQs7dHfK714i4+vOYKEsktA4Gk4wh6m0SD+NQXG8qUDKK3y3yvvg3h+0hUCeIe/6TJ/NkMR1k7iofPBEW02tT1peCbN0u09SrpO3v/dj+VZ8oR2ql2y3pGN27yU1TSXf6U1YIBZ8nX08TOFgMXDkdvhEc/yw2KMO4hwuG4DF+XFI85uceieAWt8VBuuPYvXng1Irf/o/0mW7TlsxvKPuIzxhcfnhUu3d/KL5xf2TeHe2+R/lEIQ2ASaBtM/DZrbHxlXx6KjYf7q3O2Escz3urwjL98AnCA0f2p7B+BjRvlwdVCF+crEjzAIwjG/Oq/AFkTmHkDIq7rtp3x7lX+/z+XFHZRCsFu+5cWHKwFEWWPhYV0JO1gKY2QmLh2W/4V/wAMecPYcgvD2DkyPikKwpKVFr4SmDs2zJdOHyYibOLzA7xLu2/Gb4jelvfwW5ikDykMhtX6A+RevwhGv8hOutSmHclHM1GUsV3kctq+8zvankOMNZay8yiqOydSWKvOjXeHT/aX00WinNQThztcWKAQGISkE54t59R55Rjg5kx/fyMeWbMeHG0XCM5xHRR3WBl+mPR1Hjr+3eSmvaStW32SwMsWn8e1SIaju4VL7cn/QTjuTfnmOvrwO8oqOLOCUJFZs9EE7mJCTudqLaXTb6w2mDZQrb2UOj8q9jB+fe4crbvTH+LHOxfOl7ZvC/N2ucxQCL3MSyExym9vc5qxWVCcBCKA4pMi57TrdKtX3u2XaM/kAy5w3R5iaQmCecd6ABYI6d5aAwB6VAA0pQdtzDCve4g4jLv83XaOvjPLd1iUvblsKwVhHtDDyt+rVscVhFW7oKOzvOWm0KWIJgIQAbI+KQqB+NTA+XC16tWZEo9UA8ZJn8WI0yBeP16Q1xo3YiXfxve/Z+Dz+6bl35KtjlbY1GUZ4BAPctZ06gHgVvpxn97///eedNDqA8i6PbfgpBOO/mFZO/KDsx1UhgLG6cOpCIbAryoFpaBUN94O7d0a35BF8J00+h2dgS4nSDm92s5vNZdDuOLQvXDmVT+dDoZTWNi98nELgkLJ4QNlgl6MQ2NFFiWQhqH2E5dhWRrwuJqxso5MHfEZf+gd1SSs50smjdmeRhdp0bVd4VBCEnddj19Ab3/jG+WwR0yrKqvxhIByfjPGeuw9T4eXz6lhaO/l9VxrSJGNGGVla/HMUghL1cRqRA4diChXFvDUqnbbFEwkx38lQOntd3qmQhQOAMkLA2+pIQDUHLt+IoCHVgJQrgsSwno//Ilde/P2Ub6/y7/e5vLhLoRAoI2Hk1EdYaOBwCa+EJAGE0c2RMaeGKx+e3jsqCkF48vEdZYBlw5oS1qxXvvKVM0864Mdou0aI7mPjG/mh8Ji2sHg8yV8+6753pK08hCMF2SLbe9/73rMVLTzH9iMuOrDSWJnsnA7pSHvb10lXCMIa7kbo/juCuTv+qGOJrjv50TueiE7eF9dzeBqIELzaPr60U0v72iTHamtM0je84Q2nF7/4xbNyu8yn/A7Ll9/5KARO5NPO8G1tpTLn74Tl+cRLC57yKd36i2U6B4FN9JSHsHwttvSnfawEKXPoRqaOg60UPNOA+kg7vvAA+VD51WF0yzos77071lcdxzJKl4sG4/e+xY/yN2AySGataiDv3a6zCkGJ97EFaToR5g8VHJUCDG31OnOozhuhlpUrg938CsJXEYWmSUkPk5mKMOfm72RppMBXDgSoY+MXX0Pr3sIch0SwOoz1K9/dynZQz+TFbUMhUGZ5EW6YQxiu5rKe97znzebg1oLAEV3TbikLI62j+VFTCGoU+A2vvOMd75g1cRq5KSz/nsncalGpv8S2jkIj0FGHC2zw2Nh4wg5m0vbM+zn347MaoOfS4uNZwtRUlT/bokynBMCdpcs9noWvML62y8ZIQluSx6W4TrJCkFxIhmUhMLpFN5jnRjm2U3j5bvfxTPyA5wys/MkbfqAMjPJKOEdmKSeeYS2irOAnaW/zUuf9KgR3vvOd522UOhp1zkImXLnD5qD8aIJu8pWnONjXIR4UXuXFl7Yp2F/4hV+YLr/88pmW+Kn2nI+OZKr2ro2TS/4G2Sm9Bi8sRckibY5Tl/JKrlQX8Tth1zfjO8KlIV34kCsGSLa8Onvm4Q9/+LxeTB8Pw2gFt49SCCRmGxoTsh0EVXTJyP5q9zWvec2cYcJSgmPiuxHGe1WEL40chiLsAcfkrUGZ5/ZPfoRqhBAGeo2phu+e0/DN2bFiqJd8ynO3sh3ks4i5TYUgHPPhCAOjoiw+6Ao7dIVnfkIz/6gpBNFQ3QhMB1a1aE+d8IR/z2TtsCOFafhJT3rS/D8YRjO0fAqiRqIx1Bjj3ZEvC8cz/Bqb/DVmQsLiW43Nf234R0j5mn8lGHLKFs7KaCTI2W/uD72US3ryvBSXvHWQJ3HKILkAf45caA0B+o+YC+/moo134oV8/ISvTBcZhZGPWTnxAx7gkqVklLDOQ7n4/g+GvMNTY8davoft4/H9KgS2m+MZstp3yRv+YV1jWxzzq20eZN4jH0hX56pjdRKsf941nY2e5Cj6JU/RVDh6G2yZloXXYx/72FlOWJ9n8aZROjkm7foo+S7xrN6eufjKhH9Txmz7d1Kt/hsNrZGxqNlg0FZIU8LWCLFwKEuLVqXddY5CIBNMTTvVkWo4NSaVq0ExH8vAIkCVqJAluh+/CilMTpywihJQQOJU0GjPzgFz4UZVQB9dSkHKgHJz1kAYsWmo0pXHhZR3P3Xa9E75bVMhkKe6xmDC5sCs97jVrW41d5phh6aFYReNoztf3FGZMlAXDp/gVQLJXJ3GqR7KGu35NPQb3ehG85kLeNq6EtYDJlzKBB521gYhzpIAJwtc8YsGxun03WtslAn8SNPX4GjZrFh4UyPzB16jYKhMYZxPKaDg+kMu59snVLfJmyO/ngaFIJ42ZcCU64+GCHidL4cH9uO8iwd8y/qmbZvvN81p/ZPj1R0DHj+gNb5MNo2+eDyBZyiHzqxgziXkR7k40uoww/Lcj0JgGtc0o6PoWeHgoE1wwjnTYMJLvzjxy2c73Zdm3/LlR5nWqY7K/cVilAwla4ThUucLn6c//elz55pSkOxMQaidpxi4NwCgGNidYaBinQjlj3XQtK6zY/BSPIkXyRtKAyfMicd/cPI+SzoZIh3pOb9C/ywPliky3/ofZa0NmL56wQtecPbsoPA6qxCIUGlCkQZ02WWXzRprCahojEuLlRgBuWRa94FYJjv5gMb4KRW+dc9JQ3zCH8GNcm1NVEHgBn6NLb8Gp+z+LtnZ4YgoXXly27rKbxsKgbzCK+zKn8AnaOx1N2cdXaMpLGNqcSOGcD0qCkH14etEbQdiwqthVg/lV8cELt89bV2nbSSsYfr/AP9OZvrLSJ3WTKgb3dmh4S+MhcXZAaOxWYFti6aTBU1nUVKZg+UdriwD8aP40Ym36FWDZYJkwcH7LvW6FNdJVgji63iikbjzIciTxz3ucfP2XKM3fMCJ28nZyuu0VKZXHT9rw7d8y7fMo0aLBskcSgc6c3iBUlA54oue4w2WOycsUlLRAh+cjyw9KJ6R534UAh0dhdaf0JniUHZ/KQ0La3ooumTNbo4Sze32jme9k1/68vQcLZyHQJE/qPYjnVGGwqV+Sj+iEzawMOJu10j0RW/4uCdLu4/exbNkUhDIEH9bTxbBzVooygLLptN8KR+c6W//VMt6r87WM8DeFCmLvXRYRk3nx3/yUpZRHolj4SDrOkww/jlHIcCItBSZGFmNjCsRjmaICDQao/eAA9j5MHHfAdm3nM4sV1xpIoL8aIMvetGL5vUNOjYVrWx1ZMotTDhTHACFYRK80tzWVfkpBE94whNmc3blVL4cvI1g4aqcvqucY3i3cvce7GJmeNJs+Yj/kpe8ZO4I67iUBV6EUvTuGVyFxR8lhSBeYSGwhsCUQdqv+mgANcjKX916rlPAy6xNLGHOjtc4Kbu2rJr3c5IjJ2xfOGFvGo1S4Rvf4i95jTSFW/mNYXHyJEi1McoAmqBV7SCa70bnw3iWQnDctx3qFJZHFycf+PgcvfCLRV9o4dwSCh26Mu0vnfieeZfTHvAAwcvhBbTV8UsfreM99wnk2ln8gQ/tpqKc4GWDLO21tpx/GDTflKa2tZdCEE+rCxytPYJBfpjAJyduDPfOGN/z0R/f690xjtz0R24WYRoxH2T7kZZ2keWhPsk92UOmGyhQBq1fIgvQlUNztF3SO170jmf4IlkUfuqPv5zea7Dh79OdBeR8AyN9fDvyn+/wnnSkV55jXsn55BSZNloIwu1jRoZjlrAi0hyoykmwhDC3jAhOpmemGp2MK6BKq8Q3MVxx3vFd747fLsPeq4OjGCAEUxVtCliVtYaozMqaj1ivetWrZnOLMktvG1d1xEDM0hQCI4GIAl+4coQMhYDZkTVkiYH7/V7qVz3HMOzMbdIuMVSMozxhFxPlJ9QIzEc84hGzlQEtqtv5lGu/5d/tPfXJsRAYUVmUR0goq3KrV/UproYa5t3zxfFrnPiJoMtpbOIIe2mXhrRLP5qO96Utznc6GucNGIFS/ExPoBP+4IS3jWdYE3zWWFz/+tefsVBHTr045SeMjFq0/a74AE0u9aUMOlRyAX9Hi+gw1kdc9RLu3eq9l+/90S3fX+aJt/DkyCfaFFlrNGjAgh+00doXbHOHgW1pjz4eNLfNCtK6B3VTn7FOY313wm7E56DD8aVO0K6M+iR1OahLWvU7S4zghFamj5wXgYYsjvoa8kL5Ug5hFUbhGJY74eIbaeCZ0WmHIw8tv48u3lnmUd7eIYdML2QhCLeP0YjcqKB5MOYKnVMZS7gCaGTmxcy9NYoFvu9L56CIUTrSVbZ8ROA0Hp2nuRLmXxq6MudUvrBOmHlHp7yb4I3o5X2xfrhiKnkzT7JqhKcyRlCY26Zm1JhCUJ2lcz5X+UaT6qUc5sP9G6Q9xClSylGZMMt4r3zuUwgu5QJNGIx1oqVbzOc/G25605vOypYRAw1bo0T/Gog6CId3dVTvno3Pvde3fZNf/OiXjrTky9eQ8aUyWcjjEC8WGnOurF34Ooc2nPpt+8IfykMhMJ1SPfnqom58CgGTJYU8nsqPLtsuu/wqAyxNee6mEIw0E1bHZdx+70ec+ia+iqdKH4acDkxbYi425eQwKutYGonGA+oE08PENdzGvGBoIbdBA6sIHq5u1aG6Fb8tf8w3vkwhMJ1nTYG6HOYVZuhS29UXmkKwnsiiYhZGo3j4kbFwiw/GOoy4jfHCYc3vWfzWd+N7vTM+E+4bPszIRYMnFgJWldFqrm4fo1IqpxOyItFWEomXgYQUSuIEgtENgaZTHhl2ZKqDJEiCUvrKqhPQqbtXGQu7bOlo1aey0sbTztSDQpAGOTa4ZTmlyR3UJa0atFEV7HRWyqScGlsEo40TEJSciARjdZXG+VzlW959K156TIL+nVKe8o/WMZ97ZSueTxlkIRgVAulx27zKU93QkokYD5jnf85znjMrBxQrpn9CV53CePRrOEtfXXPLZ+6Xz7of0y7MmnaHO9xhFhIve9nLZuWFRq4Oyo6+fFf1WdJsG9gqD4XAKNX8t/JXV/hxhAmlhkKAl32jrJXXvfbJ3+ZVOcrfQGE5ZVB9NtHzYuKivTTKY4wrPn7QpkxL2e2j/cG7dViwoxTED9UrfA8DU3nkoqVykO8WN+rQxvajbu6XdbwYDPf77Zi3byrHqBDEl4eB1ZhmtIEVevGjH+uKftTcv/UUphmzXsYH+eqUYiMcFtXVs/H5+J36j67ve2eTrx+0/s6aKyeOWpCt3Y88NisEKsP0YbW0eQpaBKBHJ84Z3LQgQjgggOPiB9AI3sWGR/ADXgUiAEUGEeyvZHI3H1dnBiQdmQUXGh9h7LsRgGX5qs8y/kLuKyefhcAiJQoBQiL+SETxzn0YF5nVYVxomXy3/NY9zCgecEkpiBnzK1vlNKqxiCqFAI7LtC8Eo/P9pjpFQ3yIqdHWylujLft9TRFZHGuhmEVIttxonJQEWJsOwN94JeFS3ffyYeMbjbVpBvN4GhxrlTUNFvxYpGjlrzIR/MqpvOrAR99w5PfsfDE5iPeVzTSG9h9/jjioq/l2giQLARpEB3WqLgdRnv2mId/KwIczeo9TBmM9DjO85As8xiJIOTWtpZNlpoWzleQU/3gAdqP1Ei9sgx9qT+GoHEuF4DAxu9i0DfwoWfouMlY9DvsKM/xWu+VzlDpWWMqJDtcaA8qBv7wmF5zua1qB5ZD8IT/GTh8PjbJ3J3x6T1slw+CgjyaHyGqDEXx3t7vdbVaQ9T0GxabaWfjNBtg5hcdqP+p1ViGwfsA+aqPA+973vnPnaqRl5aNVjLbpmD900EajdACMiQXKQRNFetKu8PIUzsymUSm/0+F0Wswh5uZsi2Gmte3Qdo1G2wddvp0YMIaRnwUvOiiL0whd59tb/8AJ3+QmN5kXFo37esf6XkyZl9/CgXlNI3LCHzOxRSvKwbWARVhZLWxx4I/RIdNYtFimuxMOBxkP05HnRoEqjCesLaAg4AnmT8qgaRJmRdM2Omt8wSJDUTD3Z3sqhVc9zaOrM4sYZ9QMCyt4HXbVwkPHEmvkFFGrzc27anSUAP9ymNCHdw5N4caNdTmstrNf7CkEti7ZwmlONn6AAx7Ap7Yq4WG87Br5uzrtN7+Dei8c+TBkIbC1FJ0qe+0t/r4Yv/YgDRjpjPAM3sFDFqHa6kV2WhVPIcV35pkphuQQ/owf4t+Rp4U990z4sK9oF5Y6Vrtp8Lv6ag/JKX68cTE4Xsi38i1v5dIu3ZvGZoEzIFCHw77CC21GuiUXo51+UqdLDrBikgumiOwSIC/83fk97nGP2SrPwm3xuwGFvgBfjXWFF+y1TQMbMsj7+jpWfenYtWRxqj6c4u4vm/27pj6lMw8oKwaEWaPGOsBtVggIKYW3v5E5Wadvbvad73zn7DtEQVjFJFRHLLFRkAXUQRJlTDPA+eKrjHthDY3mw2SDQWhDBLPOoYZ3kGXbi/HGsiOE8x2MGnVKFhg+8YlPnJ17BGTloFkmCKon+nB7XeW36b2e8WElDwIK0ygLpwzKxMe0xfGV8YorrpjnaH1fx7Ypr8OMg0m4KAdeLK4yiefU1TMN1Ht4HB2McPGFhsKaoKFSGglu00+OEVZfHbzFQqZ6YOAsevSDGc2fkKds2M6pwWk/GhtslaUy8N1X7mhRubuPNvxtXvJTPkqieUWKPx4Y+YAySIFUXxi6Kq96qOOluJShcqgDGhvYKK/yx7vxcvXqWf6m573rWc/xRe0VTnjFljC8g4fwkt0CeAKerKnkUvInXhh5RFxuWR/x4rZxlbcya+tGlcmB6qy+6t39iF84hVX49U734/Mx3PPR3+m5+MqAL/VP5Py2sQqz3fxoTgbhBUorpdrgSt9q67Qtzv4MybQnfqKQwUEdowHcxSeDbAAw0DHiJ8uSQxQjWGgL9dXJnlHmxFsjZvOiwpixl/ka1+gIVffe9bzExI33B8245RfglbEyj75no3YGEPeV9aDLtp/0lDscMUOH39AcO+xGAzSaJWjDsnr1vfi9rjDa9J5nY5qlCyOdmDJgIg7DMr2KUybOlJJnlU+dpLHtqzqqi7IQrNGXr1zixnjf9G587L14xeiY+bb6V2f0ERYPI++gITc2NmmFS5iM5VyWz31l9a2wyze9u01cyxceaI8Xq3s+DGAB1+paWfuev+1Lnpwy1dbVgavM+Fg9RheNR7+65o/PNoVLv2f4Ay/BiCCOtpVxSWP45ZTf++M328ay/JQFv5NVsCALWDb46iwOvuq9CStxowuf0d/ree+O7wmjZXkro/fEjXhXj2340S06orXwGB/9x/hkj3LnyBQ8NNYrXuaHRfUnh3yL36SHd+Qrn9pEvFjb8Dznfe+N1znnEJRITFkFxAsX7764CpA/Jn4QYflWwfLly28EoLJVZvc9D4yDKM/5pqE8oxCNGNWrMhbPV17+WF/hi72kUb7SL2/+yFBjWQpXJt97nzuIMl1InZRBeXLuR6yqo7THOo/v9c6m74rrndHvWemGD7/0y1ecMkb/vum97vl907M5Yks/1UE5Co91HuPGOuGByuvb6rGlYs/ZVE7lCufKy+/5QfnlU913Sjc8wtR7XT1zXzjfe5W7uL7bhi/P2tWI4zK8U70PO145Kt+Yl3K752/zikbyXtJtfFa5ilv6I75jvQqX9piP8DKd7nuv70ZfuPeWWG1UCMYP+rCCjfdlIm4Me/cgL+m7ynv05TV2UDFL73gu7qDLtN/6yZerPHAasRI/vuPZ2Nn2HUMoBRAAAAF2SURBVP98rr5bfiN+LIO8CNKxDH0jbin4Sje/d7fpy3ssr3B1qlz8rt4fnxXunf34y2+6zx/LJD3xY1zvwXTJA+XvnW1flXPMu7JWj+57dyz/8p1tln/ENz5QRuUb29FBlan6y2vEpPBYnp1w6d2eL3l3TNsz72/zirYjnpU13t1meco73Db52y5P+S3Lsixr7+WHaTQufkynuNH3vGt8t3DP8sXHV/JiSYiX+oa/vM5RCDzc6eXx4/Gd4jfFLTO72PvyGNMpLl/lua7i+ZfiWua7LM94P4bHsi7TGJ/tFC6tTc97xg+v4sb3ixv98flRCY/lK7wsW/H8w7zKZ6c8PF9ifthl2qksY/yy3Mv78d1N4fN9f1MaFxK3zLd7Ppy7v5C09/NN6W/yd/q+dz0vvPSXz3ZK6zDjK1N5uA/T4rbpy395Lcu4fL6N+/MpV+XNv5Dy9W3+Tmn0nL9fun2UQrBT4mv8isCKwIrAisCKwIrAyUXg/wcb2gsGjcaebgAAAABJRU5ErkJggg==;" vertex="1" parent="1">
          <mxGeometry x="275" y="249" width="92.3" height="61" as="geometry" />
        </mxCell>
        <mxCell id="-50hmQoTLUrfGb5rIqys-10" value="" style="group" vertex="1" connectable="0" parent="1">
          <mxGeometry x="469" y="130" width="280" height="80" as="geometry" />
        </mxCell>
        <mxCell id="-50hmQoTLUrfGb5rIqys-7" value="" style="image;html=1;image=img/lib/clip_art/computers/Server_128x128.png" vertex="1" parent="-50hmQoTLUrfGb5rIqys-10">
          <mxGeometry width="80" height="80" as="geometry" />
        </mxCell>
        <mxCell id="-50hmQoTLUrfGb5rIqys-8" value="" style="image;html=1;image=img/lib/clip_art/computers/Server_128x128.png" vertex="1" parent="-50hmQoTLUrfGb5rIqys-10">
          <mxGeometry x="100" width="80" height="80" as="geometry" />
        </mxCell>
        <mxCell id="-50hmQoTLUrfGb5rIqys-27" value="&lt;font style=&quot;font-size: 14px&quot;&gt;&lt;b&gt;Web Server&lt;/b&gt;&lt;/font&gt;" style="text;html=1;align=center;verticalAlign=middle;resizable=0;points=[];autosize=1;" vertex="1" parent="-50hmQoTLUrfGb5rIqys-10">
          <mxGeometry x="186" y="30" width="90" height="20" as="geometry" />
        </mxCell>
        <mxCell id="-50hmQoTLUrfGb5rIqys-11" value="" style="group" vertex="1" connectable="0" parent="1">
          <mxGeometry x="469" y="240" width="280" height="80" as="geometry" />
        </mxCell>
        <mxCell id="-50hmQoTLUrfGb5rIqys-12" value="" style="image;html=1;image=img/lib/clip_art/computers/Server_128x128.png" vertex="1" parent="-50hmQoTLUrfGb5rIqys-11">
          <mxGeometry width="80" height="80" as="geometry" />
        </mxCell>
        <mxCell id="-50hmQoTLUrfGb5rIqys-13" value="" style="image;html=1;image=img/lib/clip_art/computers/Server_128x128.png" vertex="1" parent="-50hmQoTLUrfGb5rIqys-11">
          <mxGeometry x="100" width="80" height="80" as="geometry" />
        </mxCell>
        <mxCell id="-50hmQoTLUrfGb5rIqys-28" value="&lt;font style=&quot;font-size: 14px&quot;&gt;&lt;b&gt;APP Server&lt;/b&gt;&lt;/font&gt;" style="text;html=1;align=center;verticalAlign=middle;resizable=0;points=[];autosize=1;" vertex="1" parent="-50hmQoTLUrfGb5rIqys-11">
          <mxGeometry x="190" y="30" width="90" height="20" as="geometry" />
        </mxCell>
        <mxCell id="-50hmQoTLUrfGb5rIqys-18" value="" style="group" vertex="1" connectable="0" parent="1">
          <mxGeometry x="469" y="351" width="280" height="80" as="geometry" />
        </mxCell>
        <mxCell id="-50hmQoTLUrfGb5rIqys-15" value="" style="image;html=1;image=img/lib/clip_art/computers/Database_128x128.png" vertex="1" parent="-50hmQoTLUrfGb5rIqys-18">
          <mxGeometry width="80" height="80" as="geometry" />
        </mxCell>
        <mxCell id="-50hmQoTLUrfGb5rIqys-16" value="" style="image;html=1;image=img/lib/clip_art/computers/Database_128x128.png" vertex="1" parent="-50hmQoTLUrfGb5rIqys-18">
          <mxGeometry x="100" width="80" height="80" as="geometry" />
        </mxCell>
        <mxCell id="-50hmQoTLUrfGb5rIqys-29" value="&lt;span style=&quot;font-size: 14px&quot;&gt;&lt;b&gt;DB Server&lt;/b&gt;&lt;/span&gt;" style="text;html=1;align=center;verticalAlign=middle;resizable=0;points=[];autosize=1;" vertex="1" parent="-50hmQoTLUrfGb5rIqys-18">
          <mxGeometry x="195" y="30" width="80" height="20" as="geometry" />
        </mxCell>
        <mxCell id="-50hmQoTLUrfGb5rIqys-20" value="" style="image;html=1;image=img/lib/clip_art/computers/Monitor_Tower_128x128.png" vertex="1" parent="1">
          <mxGeometry x="70" y="240" width="80" height="80" as="geometry" />
        </mxCell>
        <mxCell id="-50hmQoTLUrfGb5rIqys-21" value="" style="endArrow=classic;html=1;entryX=0;entryY=0.5;entryDx=0;entryDy=0;exitX=1;exitY=0.5;exitDx=0;exitDy=0;" edge="1" parent="1" source="-50hmQoTLUrfGb5rIqys-5" target="-50hmQoTLUrfGb5rIqys-12">
          <mxGeometry width="50" height="50" relative="1" as="geometry">
            <mxPoint x="390" y="360" as="sourcePoint" />
            <mxPoint x="440" y="310" as="targetPoint" />
          </mxGeometry>
        </mxCell>
        <mxCell id="-50hmQoTLUrfGb5rIqys-22" value="" style="endArrow=classic;html=1;entryX=0;entryY=0.5;entryDx=0;entryDy=0;exitX=1;exitY=0.5;exitDx=0;exitDy=0;" edge="1" parent="1" source="-50hmQoTLUrfGb5rIqys-5" target="-50hmQoTLUrfGb5rIqys-7">
          <mxGeometry width="50" height="50" relative="1" as="geometry">
            <mxPoint x="390" y="360" as="sourcePoint" />
            <mxPoint x="440" y="310" as="targetPoint" />
          </mxGeometry>
        </mxCell>
        <mxCell id="-50hmQoTLUrfGb5rIqys-23" value="" style="endArrow=classic;html=1;exitX=1;exitY=0.5;exitDx=0;exitDy=0;entryX=0;entryY=0.5;entryDx=0;entryDy=0;" edge="1" parent="1" source="-50hmQoTLUrfGb5rIqys-20" target="-50hmQoTLUrfGb5rIqys-5">
          <mxGeometry width="50" height="50" relative="1" as="geometry">
            <mxPoint x="160" y="380" as="sourcePoint" />
            <mxPoint x="270" y="280" as="targetPoint" />
          </mxGeometry>
        </mxCell>
        <mxCell id="-50hmQoTLUrfGb5rIqys-24" value="&lt;b&gt;&lt;font style=&quot;font-size: 14px&quot;&gt;Send Request&lt;/font&gt;&lt;/b&gt;" style="text;html=1;align=center;verticalAlign=middle;resizable=0;points=[];autosize=1;" vertex="1" parent="1">
          <mxGeometry x="150" y="290" width="110" height="20" as="geometry" />
        </mxCell>
        <mxCell id="-50hmQoTLUrfGb5rIqys-26" value="" style="endArrow=classic;html=1;entryX=0.013;entryY=0.58;entryDx=0;entryDy=0;exitX=1;exitY=0.5;exitDx=0;exitDy=0;entryPerimeter=0;" edge="1" parent="1" source="-50hmQoTLUrfGb5rIqys-5" target="-50hmQoTLUrfGb5rIqys-15">
          <mxGeometry width="50" height="50" relative="1" as="geometry">
            <mxPoint x="377.29999999999995" y="286.53466351031454" as="sourcePoint" />
            <mxPoint x="479" y="280" as="targetPoint" />
          </mxGeometry>
        </mxCell>
      </root>
    </mxGraphModel>
  </diagram>
</mxfile>
